<svg xmlns="http://www.w3.org/2000/svg" xmlns:xlink="http://www.w3.org/1999/xlink" width="195.104" height="119.022" viewBox="0 0 195.104 119.022"><defs><clipPath id="a"><rect width="181.721" height="80.199" fill="none"/></clipPath><clipPath id="b"><path d="M20,32.84a20,20,0,0,0-20,20v.59H55.123a20.005,20.005,0,0,0,20-20v-.59Z" transform="translate(0 -32.84)" fill="none"/></clipPath><linearGradient id="c" y1="2.601" x2="0.011" y2="2.601" gradientUnits="objectBoundingBox"><stop offset="0" stop-color="#4ab493"/><stop offset="0.009" stop-color="#44b090"/><stop offset="0.047" stop-color="#32a78a"/><stop offset="0.092" stop-color="#26a086"/><stop offset="0.152" stop-color="#1f9c83"/><stop offset="0.296" stop-color="#1d9b83"/><stop offset="1" stop-color="#0d645d"/></linearGradient><clipPath id="d"><path d="M52.844,0a20,20,0,0,0-20,20V73.856h.59a20,20,0,0,0,20-20V0Z" transform="translate(-32.839)" fill="none"/></clipPath><linearGradient id="e" x1="-1.293" y1="1.086" x2="-1.254" y2="1.086" gradientUnits="objectBoundingBox"><stop offset="0" stop-color="#0d645d"/><stop offset="0.704" stop-color="#1d9b83"/><stop offset="0.848" stop-color="#1f9c83"/><stop offset="0.908" stop-color="#26a086"/><stop offset="0.953" stop-color="#32a78a"/><stop offset="0.991" stop-color="#44b090"/><stop offset="1" stop-color="#4ab493"/></linearGradient></defs><g transform="translate(18.041 0) rotate(13)"><g transform="translate(0 26.632)"><g clip-path="url(#b)"><rect width="75.127" height="20.594" transform="translate(0 0)" fill="url(#c)"/></g></g><g transform="translate(26.631 0)"><g clip-path="url(#d)"><rect width="20.594" height="73.856" transform="translate(0 0)" fill="url(#e)"/></g></g><g transform="translate(0 0)"><g clip-path="url(#a)"><path d="M52.932,53.3a1.106,1.106,0,0,1-1.157.2.977.977,0,0,1-.654-.959c-.035-.679-.046-1.36-.118-2.035a17.373,17.373,0,0,0-4.349-9.689,17.321,17.321,0,0,0-12.741-5.86,1.4,1.4,0,0,1-.858-.208,1.118,1.118,0,0,1-.367-1.176.929.929,0,0,1,.889-.732c.491-.009.985.007,1.477.044a19.439,19.439,0,0,1,8.024,2.383,19.675,19.675,0,0,1,3.413,2.392A18.89,18.89,0,0,1,48.9,40.154a19.438,19.438,0,0,1,4.257,10.477c.06.625.066,1.255.087,1.883a1.032,1.032,0,0,1-.307.787" transform="translate(-6.172 -6.208)" fill="#fff"/><path d="M48.215,54.418a1.054,1.054,0,0,1-1.1.123.941.941,0,0,1-.628-.94,13.159,13.159,0,0,0-.424-3.327,12.944,12.944,0,0,0-10.43-9.447,13.794,13.794,0,0,0-1.944-.162,1.073,1.073,0,0,1-.91-1.635.974.974,0,0,1,.924-.491c.391.009.782.021,1.171.054A14.989,14.989,0,0,1,48.532,52.06c.049.49.058.984.075,1.476a1.08,1.08,0,0,1-.393.882" transform="translate(-6.169 -7.286)" fill="#fff"/><path d="M41.3,47.653a10.023,10.023,0,0,1,2.636,6.1,8.985,8.985,0,0,1,.033.9,1.058,1.058,0,0,1-2.116-.006A7.933,7.933,0,0,0,40.684,50.4a8.119,8.119,0,0,0-6.862-4.018,1.169,1.169,0,0,1-.937-.344,1.087,1.087,0,0,1-.172-1.178.939.939,0,0,1,.954-.6,10.206,10.206,0,0,1,4.029.834A10.942,10.942,0,0,1,41.3,47.653" transform="translate(-6.165 -8.366)" fill="#fff"/><path d="M37.6,51.557a5.827,5.827,0,0,1,1.741,4.068.979.979,0,0,1-.536.981,1.092,1.092,0,0,1-1.2-.1,1,1,0,0,1-.387-.864,3.433,3.433,0,0,0-.589-1.936,3.524,3.524,0,0,0-2.855-1.619,1.323,1.323,0,0,1-.728-.186,1.112,1.112,0,0,1-.395-1.195.972.972,0,0,1,.94-.742,5.529,5.529,0,0,1,3.284,1.015c.287.2.55.435.725.575" transform="translate(-6.164 -9.446)" fill="#fff"/></g></g></g></svg>