<svg xmlns="http://www.w3.org/2000/svg" xmlns:xlink="http://www.w3.org/1999/xlink" width="2128.486" height="1457.465" viewBox="0 0 2128.486 1457.465"><defs><linearGradient id="a" x1="0.5" x2="0.5" y2="1" gradientUnits="objectBoundingBox"><stop offset="0" stop-color="#0d645d"/><stop offset="1" stop-color="#4ab493"/></linearGradient><linearGradient id="d" x1="0" y1="0.5" x2="1" y2="0.5" xlink:href="#a"/><linearGradient id="g" y1="0.5" x2="1" y2="0.5" gradientUnits="objectBoundingBox"><stop offset="0" stop-color="#dae3fe"/><stop offset="1" stop-color="#e9effd"/></linearGradient><linearGradient id="h" x1="1.385" y1="0.019" x2="0.175" y2="0.559" gradientUnits="objectBoundingBox"><stop offset="0" stop-color="#a22b25"/><stop offset="1" stop-color="#c0423c"/></linearGradient><linearGradient id="i" x1="1.218" y1="0.154" x2="-2.042" y2="1.809" xlink:href="#a"/><linearGradient id="j" x1="0.94" y1="-0.484" x2="-1.895" y2="6.012" gradientUnits="objectBoundingBox"><stop offset="0" stop-color="#1c1c1c"/><stop offset="1" stop-color="#707070"/></linearGradient><linearGradient id="k" x1="0" y1="0.5" x2="1" y2="0.5" xlink:href="#h"/><linearGradient id="l" x1="0.169" y1="0.946" x2="0.838" y2="0.099" xlink:href="#j"/><linearGradient id="m" x1="3.08" y1="-2.223" x2="-3.938" y2="5.384" xlink:href="#j"/><linearGradient id="o" x1="0.048" y1="0.917" x2="0.519" y2="0.085" xlink:href="#j"/><linearGradient id="p" x1="1.013" y1="-0.02" x2="0.095" y2="0.73" xlink:href="#a"/><linearGradient id="q" x1="1.686" y1="-0.712" x2="0.073" y2="1.128" xlink:href="#a"/><linearGradient id="r" x1="0.625" y1="0.313" x2="0.057" y2="1.955" xlink:href="#h"/><linearGradient id="s" x1="-113.947" y1="-42.236" x2="-114.592" y2="-41.412" xlink:href="#h"/><linearGradient id="t" x1="-372.278" y1="-208.088" x2="-374.38" y2="-204.092" xlink:href="#h"/><linearGradient id="u" x1="-15.959" y1="-1.117" x2="-17.946" y2="-3.188" xlink:href="#h"/><linearGradient id="v" x1="1.385" y1="0.019" x2="0.175" y2="0.559" xlink:href="#h"/><linearGradient id="w" x1="1.526" y1="-0.067" x2="0.175" y2="0.702" xlink:href="#h"/><linearGradient id="x" x1="68.552" y1="3.168" x2="67.458" y2="4.371" gradientUnits="objectBoundingBox"><stop offset="0" stop-color="#ff928e"/><stop offset="1" stop-color="#feb3b1"/></linearGradient><linearGradient id="y" x1="83.404" y1="2.607" x2="83.39" y2="3.6" xlink:href="#a"/><linearGradient id="z" x1="0.826" y1="-0.646" x2="0.313" y2="1.451" xlink:href="#x"/><linearGradient id="aa" x1="-168.495" y1="97.075" x2="-169.746" y2="96.047" xlink:href="#x"/><linearGradient id="ab" x1="-469.219" y1="357.748" x2="-472.714" y2="353.931" xlink:href="#x"/><linearGradient id="ac" x1="0.483" y1="0.321" x2="0.593" y2="1.22" xlink:href="#x"/><linearGradient id="ad" x1="173.369" y1="0.939" x2="174.364" y2="0.939" xlink:href="#j"/><linearGradient id="ae" x1="136.624" y1="0.353" x2="132.727" y2="0.683" xlink:href="#x"/><linearGradient id="af" x1="145.063" y1="1.018" x2="146.055" y2="1.018" xlink:href="#j"/><linearGradient id="ag" x1="0.108" y1="-0.624" x2="0.49" y2="0.67" xlink:href="#x"/><linearGradient id="ah" x1="1.044" y1="0.251" x2="0.019" y2="0.735" xlink:href="#j"/><linearGradient id="ai" x1="0.029" y1="0.984" x2="1.004" y2="0.004" xlink:href="#a"/><linearGradient id="aj" x1="0.848" y1="0.149" x2="0.057" y2="0.993" xlink:href="#j"/><linearGradient id="ak" x1="1.052" y1="-0.347" x2="-0.714" y2="2.437" xlink:href="#a"/><linearGradient id="al" x1="1.429" y1="-0.243" x2="-0.255" y2="1.129" xlink:href="#j"/><linearGradient id="am" x1="-0.014" y1="0.971" x2="0.813" y2="0.237" xlink:href="#a"/><linearGradient id="an" x1="1.307" y1="-1.326" x2="0.782" y2="-0.13" xlink:href="#a"/><linearGradient id="ao" x1="-28.936" y1="0.5" x2="-27.917" y2="0.5" xlink:href="#j"/><linearGradient id="ap" x1="-28.399" y1="0.5" x2="-27.399" y2="0.5" gradientUnits="objectBoundingBox"><stop offset="0" stop-color="#4042e2"/><stop offset="1" stop-color="#4f52ff"/></linearGradient><linearGradient id="aq" x1="-60.65" y1="0.5" x2="-59.65" y2="0.5" xlink:href="#j"/><linearGradient id="ar" x1="-62.507" y1="0.5" x2="-61.507" y2="0.5" xlink:href="#ap"/><linearGradient id="as" x1="-93.476" y1="0.5" x2="-92.476" y2="0.5" xlink:href="#x"/><linearGradient id="at" x1="-112.147" y1="0.5" x2="-111.148" y2="0.5" xlink:href="#x"/><linearGradient id="au" x1="-10.727" y1="-0.024" x2="-12.831" y2="1.306" xlink:href="#j"/><linearGradient id="av" x1="-153.538" y1="-3.524" x2="-159.275" y2="3.756" xlink:href="#ap"/><linearGradient id="aw" x1="0.573" y1="-0.371" x2="0.451" y2="1.819" xlink:href="#x"/><linearGradient id="az" x1="2.035" y1="-1.542" x2="1.219" y2="-0.428" xlink:href="#a"/><linearGradient id="ba" x1="0.5" y1="-0.587" x2="0.5" y2="0.738" xlink:href="#x"/><linearGradient id="bb" x1="0.997" y1="0.138" x2="0.276" y2="0.759" xlink:href="#x"/><linearGradient id="bc" x1="-157.415" y1="-0.685" x2="-161.965" y2="1.784" gradientUnits="objectBoundingBox"><stop offset="0" stop-color="#f9b776"/><stop offset="1" stop-color="#f47960"/></linearGradient><linearGradient id="bd" x1="0.509" y1="2.145" x2="0.496" y2="-0.606" xlink:href="#a"/><linearGradient id="be" x1="0.519" y1="2.383" x2="0.477" y2="-0.75" xlink:href="#a"/><linearGradient id="bf" x1="0.382" y1="-0.274" x2="1.098" y2="3.943" xlink:href="#a"/><linearGradient id="bg" x1="0.514" y1="2.023" x2="0.472" y2="-1.11" xlink:href="#a"/><linearGradient id="bh" x1="0.34" y1="-0.442" x2="1.055" y2="3.435" xlink:href="#a"/><linearGradient id="bi" x1="0.564" y1="-1.077" x2="0.482" y2="1.13" xlink:href="#a"/><linearGradient id="bj" x1="0.608" y1="-1.739" x2="0.512" y2="0.258" xlink:href="#a"/><linearGradient id="bk" x1="0.361" y1="1.071" x2="0.738" y2="-0.819" xlink:href="#a"/><linearGradient id="bl" x1="0.734" y1="-2.141" x2="0.614" y2="-0.917" xlink:href="#a"/><linearGradient id="bm" x1="0.5" y1="0" x2="0.5" y2="1" xlink:href="#j"/><linearGradient id="gq" x1="1.951" y1="0.348" x2="2.071" y2="0.335" xlink:href="#j"/><linearGradient id="gr" x1="-0.132" y1="1.024" x2="0.983" y2="0.127" xlink:href="#a"/><linearGradient id="gs" x1="-49.431" y1="0.5" x2="-48.431" y2="0.5" xlink:href="#j"/><linearGradient id="gt" x1="-47.169" y1="-12.946" x2="-50.868" y2="11.134" xlink:href="#j"/><linearGradient id="gu" x1="119.923" y1="-0.843" x2="119.417" y2="2.39" xlink:href="#x"/><linearGradient id="gv" x1="34.372" y1="-5.387" x2="31.856" y2="17.68" xlink:href="#j"/><linearGradient id="gw" x1="33.392" y1="0.5" x2="34.392" y2="0.5" xlink:href="#j"/><linearGradient id="gx" x1="130.141" y1="-0.224" x2="129.627" y2="2.539" xlink:href="#x"/><linearGradient id="gy" x1="0.492" y1="0.914" x2="0.577" y2="-0.171" xlink:href="#j"/><linearGradient id="gz" x1="0.505" y1="-0.083" x2="0.441" y2="1.631" xlink:href="#a"/><linearGradient id="ha" x1="0.556" y1="0.134" x2="0.411" y2="2.184" xlink:href="#x"/><linearGradient id="hb" x1="-119.701" y1="-23.241" x2="-118.328" y2="-23.683" xlink:href="#x"/><linearGradient id="hc" x1="-0.113" y1="-0.662" x2="0.893" y2="1.086" xlink:href="#j"/><linearGradient id="hd" x1="-352.235" y1="-78.428" x2="-348.225" y2="-79.876" xlink:href="#x"/><linearGradient id="he" x1="0.509" y1="0.449" x2="0.43" y2="2.47" xlink:href="#a"/><linearGradient id="hf" x1="0.799" y1="-0.337" x2="0.056" y2="1.68" xlink:href="#bc"/><linearGradient id="hg" x1="-28.775" y1="0.449" x2="-28.854" y2="2.47" xlink:href="#a"/><linearGradient id="hh" x1="-0.156" y1="-3.73" x2="0.645" y2="1.465" xlink:href="#x"/><linearGradient id="hi" x1="0.536" y1="-0.067" x2="0.195" y2="1.247" xlink:href="#a"/><linearGradient id="hj" x1="0.8" y1="-0.055" x2="0.018" y2="0.795" xlink:href="#a"/><linearGradient id="hk" x1="-5.993" y1="-34.381" x2="-6.053" y2="-26.382" xlink:href="#a"/><linearGradient id="hl" x1="-5.79" y1="-11.606" x2="-7.045" y2="-7.186" xlink:href="#a"/><linearGradient id="hm" x1="-2.665" y1="-7.809" x2="-4.468" y2="0.4" xlink:href="#a"/><linearGradient id="hn" x1="-6.035" y1="-5.062" x2="-7.709" y2="-2.134" xlink:href="#a"/><linearGradient id="ho" x1="74.37" y1="-3.428" x2="72.204" y2="-1.212" xlink:href="#a"/><linearGradient id="hp" x1="-9.023" y1="0.427" x2="0.995" y2="0.503" xlink:href="#x"/><linearGradient id="hq" x1="0" y1="0.5" x2="1" y2="0.5" xlink:href="#j"/><linearGradient id="hr" x1="-81.201" y1="0.5" x2="-80.201" y2="0.5" xlink:href="#j"/><linearGradient id="hs" x1="0.515" y1="-0.083" x2="0.471" y2="1.632" gradientUnits="objectBoundingBox"><stop offset="0" stop-color="#fe7062"/><stop offset="1" stop-color="#ff928e"/></linearGradient></defs><g transform="translate(-204.117 -87.273)"><path d="M511.777,1000.514a26.886,26.886,0,0,1-15.363-48.967L641.131,851a26.89,26.89,0,0,1,32.215,1.152l100.36,80.932,515.558-350.761a26.877,26.877,0,0,1,32.79,1.964l90.366,78.789,220.342-181.441a26.885,26.885,0,0,1,34.18,41.508L1429.014,719.07a26.889,26.889,0,0,1-34.758-.491l-91.9-80.128L787.47,988.755a26.9,26.9,0,0,1-32-1.3l-100.2-80.8L527.092,995.707A26.765,26.765,0,0,1,511.777,1000.514Z" fill="url(#a)"/><path d="M1601.462,687.231a26.9,26.9,0,0,1-25.455-35.548l42.405-124.69-139.589,19.5a26.886,26.886,0,0,1-7.441-53.255L1654.2,467.7a26.886,26.886,0,0,1,29.173,35.283l-56.458,166.012A26.9,26.9,0,0,1,1601.462,687.231Z" fill="url(#a)"/><path d="M2331.56,1388.552c-9.49-61.923-56.862-54.537-77.94-17.919s-40.029,31.591-27.505-2.835,28.219-56.832,2.269-91.1-28.641-48.83-14.06-79.409,32.89-73.906-25.127-89.366-115.814,32.038-102.284,94.2,21.656,68.935,3.021,91.962-10.869,32.484-8.228,47.472-25.829,18.5-25.223-2.614,36.821-70.937,12.1-94.182-73.164-23.5-85.571,30.252,27.345,77.9,25.366,97.343-23.329-10.037-41.925,9.78,6.442,35.383,24.866,46.121,46.207,29.986,19.772,43.963a23.193,23.193,0,0,0,10.855,43.706h243.979a34.569,34.569,0,0,0,27.952-14.2C2310.326,1479.085,2338.358,1432.913,2331.56,1388.552Z" fill="url(#a)"/><path d="M2162.664,1152.748a30.735,30.735,0,0,0-5.206,3.251,38.542,38.542,0,0,0-4.511,4,45.222,45.222,0,0,0-7.12,9.482,54.726,54.726,0,0,0-6.644,22.087c-.122.956-.157,1.911-.209,2.867s-.105,1.916-.079,2.87l.017,2.869.156,2.86.087,1.431.156,1.422.32,2.847c.32,1.877.544,3.78.949,5.643.385,1.868.765,3.74,1.27,5.58l.713,2.774.741,2.681,2.981,10.7c3.947,14.264,7.75,28.522,10.74,42.854,2.907,14.322,4.919,28.8,4.466,43.108a91.506,91.506,0,0,1-.886,10.643,71.767,71.767,0,0,1-2.188,10.387,62.216,62.216,0,0,1-3.775,9.9,69.666,69.666,0,0,0-4.142,11.038,159.534,159.534,0,0,0-4.073,22.267c-.873,7.4-1.551,14.782-2.088,22.148-1.133,14.719-2.1,29.393-4.481,43.863-.3,1.808-.618,3.613-1,5.405-.334,1.8-.771,3.581-1.184,5.367-.383,1.8-.934,3.544-1.393,5.322-.26.88-.555,1.749-.83,2.626s-.544,1.756-.89,2.609l-.978,2.583c-.328.861-.743,1.688-1.11,2.536-.709,1.709-1.638,3.317-2.487,4.972a45.461,45.461,0,0,1-6.833,9l.663.584a47.937,47.937,0,0,0,7.805-8.767,65.551,65.551,0,0,0,5.5-10.086,116.325,116.325,0,0,0,6.834-21.5c3.354-14.59,4.946-29.367,6.755-44.009.919-7.322,1.734-14.632,2.861-21.865a154.429,154.429,0,0,1,4.6-21.254,67.332,67.332,0,0,1,3.93-9.847,69.36,69.36,0,0,0,4.426-10.947,78.655,78.655,0,0,0,2.617-11.293,98.723,98.723,0,0,0,1.179-11.387c.711-15.205-1.4-30.17-4.245-44.852a434.381,434.381,0,0,0-11.216-43.4c-1.11-3.565-2.222-7.127-3.373-10.675l-.869-2.659-.794-2.589c-.565-1.723-.988-3.467-1.451-5.207-.49-1.737-.8-3.495-1.209-5.245l-.456-2.64c-.161-.88-.3-1.761-.4-2.645a74.007,74.007,0,0,1-.721-10.626,54.463,54.463,0,0,1,.993-10.578,52.286,52.286,0,0,1,3.061-10.264,47.631,47.631,0,0,1,2.441-4.871,40.268,40.268,0,0,1,3.025-4.634,37.4,37.4,0,0,1,8.037-8.025Z" fill="url(#d)"/><path d="M2286.938,1374.63a315.561,315.561,0,0,1-7.239,34.422q-2.283,8.5-5.05,16.875c-.439,1.4-.961,2.778-1.438,4.168s-.992,2.769-1.508,4.147c-.985,2.77-2.1,5.5-3.186,8.235-1.168,2.708-2.3,5.429-3.576,8.1-1.181,2.7-2.536,5.337-3.843,7.99-2.747,5.25-5.645,10.432-8.866,15.459a168.746,168.746,0,0,1-10.535,14.607,165.884,165.884,0,0,1-12.492,13.426l.629.613a108.631,108.631,0,0,0,14.24-12.357,136.128,136.128,0,0,0,11.788-14.342,157.717,157.717,0,0,0,9.535-15.619c1.369-2.7,2.786-5.382,4.024-8.129,1.289-2.731,2.412-5.516,3.579-8.286,1.081-2.8,2.19-5.584,3.166-8.409.515-1.406.983-2.824,1.429-4.246s.935-2.835,1.342-4.266c1.762-5.7,3.211-11.458,4.462-17.249a192.118,192.118,0,0,0,4.468-35.085Z" fill="url(#d)"/><path d="M654.648,1364.363c-11.5-75.065-68.929-65.989-94.482-21.6s-48.524,38.356-33.342-3.375,34.208-68.864,2.75-110.406-34.719-59.179-17.043-96.247,39.87-89.584-30.46-108.325-140.393,38.842-123.992,114.2,26.253,83.567,3.663,111.481-13.176,39.38-9.975,57.548-31.31,22.423-30.576-3.168,44.636-85.991,14.672-114.17-88.692-28.483-103.732,36.673,33.149,94.437,30.75,118-28.28-12.167-50.823,11.855,7.809,42.892,30.144,55.91,56.013,36.35,23.967,53.292a87.962,87.962,0,0,1-19.779,7.3,22.963,22.963,0,0,0,5.761,45.263H595.386S666.151,1439.427,654.648,1364.363Z" fill="url(#a)"/><path d="M449.907,1078.758a37.3,37.3,0,0,0-6.31,3.941,46.635,46.635,0,0,0-5.469,4.852,54.755,54.755,0,0,0-8.631,11.494,66.312,66.312,0,0,0-8.054,26.775c-.148,1.158-.191,2.316-.253,3.475s-.128,2.322-.1,3.479l.021,3.478.188,3.467.1,1.735.191,1.724.387,3.45c.388,2.276.659,4.582,1.151,6.841.466,2.264.927,4.534,1.539,6.765l.864,3.362.9,3.249,3.614,12.975c4.785,17.291,9.395,34.574,13.019,51.948,3.524,17.362,5.964,34.915,5.414,52.258a110.861,110.861,0,0,1-1.074,12.9,86.86,86.86,0,0,1-2.653,12.591,75.19,75.19,0,0,1-4.576,12,84.457,84.457,0,0,0-5.02,13.38,193.5,193.5,0,0,0-4.938,26.994c-1.058,8.976-1.88,17.919-2.531,26.848-1.373,17.843-2.551,35.63-5.432,53.172-.364,2.191-.749,4.379-1.211,6.551-.4,2.186-.935,4.342-1.436,6.507-.463,2.176-1.131,4.3-1.687,6.452-.316,1.066-.673,2.12-1.007,3.182s-.659,2.13-1.078,3.163l-1.187,3.132c-.4,1.044-.9,2.046-1.345,3.073-.859,2.072-1.986,4.021-3.015,6.028a55.1,55.1,0,0,1-8.283,10.912l.8.708a58.1,58.1,0,0,0,9.462-10.628,79.369,79.369,0,0,0,6.666-12.228,140.986,140.986,0,0,0,8.285-26.066c4.066-17.686,5.995-35.6,8.188-53.349,1.115-8.875,2.1-17.737,3.468-26.505a187.321,187.321,0,0,1,5.574-25.764,81.651,81.651,0,0,1,4.764-11.938,83.963,83.963,0,0,0,5.365-13.27,95.167,95.167,0,0,0,3.173-13.69,119.7,119.7,0,0,0,1.43-13.8c.861-18.431-1.7-36.573-5.147-54.37a526.656,526.656,0,0,0-13.6-52.608c-1.345-4.321-2.693-8.638-4.089-12.94l-1.053-3.223-.963-3.139c-.685-2.088-1.2-4.2-1.759-6.311-.593-2.106-.967-4.237-1.465-6.359l-.553-3.2c-.2-1.067-.367-2.135-.488-3.206a89.487,89.487,0,0,1-.875-12.881,65.97,65.97,0,0,1,1.2-12.823,63.335,63.335,0,0,1,3.711-12.443,58.008,58.008,0,0,1,2.958-5.905,49.257,49.257,0,0,1,3.667-5.618,45.367,45.367,0,0,1,9.743-9.727Z" fill="url(#g)"/><path d="M600.556,1347.73a382.628,382.628,0,0,1-8.776,41.728q-2.766,10.3-6.121,20.456c-.533,1.7-1.165,3.368-1.743,5.053s-1.2,3.356-1.828,5.026c-1.194,3.358-2.546,6.665-3.862,9.983-1.416,3.283-2.791,6.581-4.336,9.814-1.432,3.277-3.074,6.47-4.659,9.686-3.329,6.364-6.842,12.646-10.747,18.741a204.66,204.66,0,0,1-12.771,17.706A200.766,200.766,0,0,1,530.57,1502.2l.762.743a131.624,131.624,0,0,0,17.263-14.98,164.927,164.927,0,0,0,14.29-17.386,191.166,191.166,0,0,0,11.558-18.934c1.66-3.27,3.377-6.524,4.879-9.854,1.561-3.31,2.923-6.687,4.338-10.044,1.31-3.39,2.655-6.77,3.838-10.194.624-1.7,1.191-3.423,1.732-5.147s1.134-3.436,1.627-5.172c2.136-6.9,3.892-13.89,5.409-20.909a232.975,232.975,0,0,0,5.416-42.532Z" fill="#fff" opacity="0.62"/><path d="M1034.706,746s-.566,18.61,16.256,19.966a101.655,101.655,0,0,0,32.427-3.189l1.445,11.168s-33.657,39.577-62.973,17.23-24.734-48.248-22.963-55.214S1029.033,742.355,1034.706,746Z" fill="url(#h)"/><path d="M1012.188,669.046c2.264,1.37,17.575,5.8,20.644,37.7s5.756,40.692,5.756,40.692l-33.126,5.588Z" fill="url(#i)"/><path d="M983.166,1098.487s-2.01,11.373-2.995,22.631a7.757,7.757,0,0,0,7.42,8.4c14.993.625,47.062,1.838,58.57,1.325a2.522,2.522,0,0,0,2.22-3.457h0a5.642,5.642,0,0,0-2.889-3.044L992.519,1100Z" fill="url(#j)"/><path d="M981.52,1091.805l1.613,13.6s9.28,4.32,15.617-.544l-3.843-15.16Z" fill="url(#k)"/><path d="M982.732,836.052c-.7,3.553-3.742,177.279,14.828,255.131a2.643,2.643,0,0,1-1.55,3.074,46.056,46.056,0,0,1-15.123,3.074,4.552,4.552,0,0,1-4.515-3.267C971.064,1076,945.628,985.5,942.309,899.048c-3.707-96.6,0-3.289,0-3.289l2.175-59.714Z" fill="url(#l)"/><path d="M922.229,1104.42s-3.2,5.742-6.294,21a4.732,4.732,0,0,0,4.164,5.667c4.951.488,12.572,1.113,18.677,1.071a4.718,4.718,0,0,0,4.671-5.263c-.676-5.569-2.783-14.706-9.291-21.827Z" fill="url(#m)"/><path d="M919.42,1086.923l3.772,20.572s3.729,2.774,11.1.763l-1.8-22.134Z" fill="url(#k)"/><path d="M909.232,841.383c-15.188,91.659,3.295,226.544,9.528,252.944a4.116,4.116,0,0,0,3.324,3.126,27.659,27.659,0,0,0,11.879-.474,3.776,3.776,0,0,0,2.713-3.475c.836-21.343-.669-152.373,13.482-204.156a11.765,11.765,0,0,1,4.538-6.489l27.467-19.527,2.106-31.564Z" fill="url(#o)"/><path d="M1006.009,667.707c-45.515-.752-95.735,11.95-95.735,11.95C896.707,758.821,907.9,850.13,907.9,850.13c35.236,9.24,74.985-5.65,74.985-5.65,5.857-33.088,33.182-126.209,33.182-126.209C1026.465,683.449,1020.047,667.939,1006.009,667.707Z" fill="url(#p)"/><path d="M927.731,723.729l-17.457-44.072s-42.514,28.887-49.505,65.511a96.732,96.732,0,0,1,35.808,10.039C903.034,740.679,927.731,723.729,927.731,723.729Z" fill="url(#q)"/><path d="M959.906,630.756l-14.482,41.881a1.508,1.508,0,0,0,.688,1.817c3.947,2.183,18.17,8.492,35.309-2.375A7.107,7.107,0,0,0,984.694,667l4.689-36.248Z" fill="url(#r)"/><path d="M991.417,591.973s15.9,29.935,13.864,42.027-21.748,11.225-38.958,1.4L954.3,603.08Z" fill="url(#s)"/><path d="M967.084,619.529a1.232,1.232,0,0,0,.538-1.8c-1.274-1.947-3.662-5.918-4.424-9.394,0,0-2.859-1.831,7.276-4.257s25.25-6.191,28.427-14.818c3.1-8.411-5.041-29.564-18.025-12.71a1.234,1.234,0,0,1-1.955.014c-2.128-2.77-7.724-8.521-15.493-5.034-7.27,3.262-8.09,8.589-7.989,11.274a1.227,1.227,0,0,1-1.454,1.256c-3.676-.7-12.5-1.3-16.614,7.746-3.391,7.453-1.187,11.672.82,13.736a1.229,1.229,0,0,1-.526,2.042c-2.416.74-5.535,2.788-5.223,8.448.431,7.825,9.18,7.135,11.671,6.778a1.235,1.235,0,0,1,1.1.388c2.136,2.363,11.758,12.4,22.172,13.608a1.244,1.244,0,0,0,1.306-1.644l-4.507-13.1a1.239,1.239,0,0,1,.67-1.536Z" fill="#1c1c1c"/><path d="M968.9,621.389s-11.323-7.769-12.15-1.227,10.2,9.477,15.656,7.038Z" fill="url(#t)"/><path d="M945.26,771.984l14.152-21.606s26.4-2.005,29.567,2-8.8,15.241-8.8,15.241l-16.16-.711s-11.917,21.14-17.318,17.6S945.26,771.984,945.26,771.984Z" fill="url(#u)"/><path d="M896.577,755.207s-.566,18.609,16.256,19.965a101.636,101.636,0,0,0,32.427-3.188l1.445,11.167s-33.657,39.578-62.973,17.231S859,752.133,860.769,745.168,890.9,751.564,896.577,755.207Z" fill="url(#v)"/><path d="M1081.561,764.734s-2.813-7.418,9.209-7.674,16.115-5.883,17.138-2.3-5.627,7.162-5.627,7.162,13.3,5.116,18.417,1.279,3.069-9.464,5.883-8.185.256,18.673-6.651,22.765-30.332,3.052-35.885-2.95Z" fill="url(#w)"/><path d="M1383.723,508.149s4.3-26.575-26.814-23.8-37.021,30.8-41.46,66.843c-3.634,29.5-33.192,51.989-50.776,73.591-22.143,27.2-27.39,62.348-9.856,94.222,14.342,26.073,47.016,28.586,72.947,21.64,79.357-21.255,99.694-24.031,93.127-75.78S1383.723,508.149,1383.723,508.149Z" fill="#1c1c1c"/><path d="M1482.164,539.049a1.65,1.65,0,0,0-3.051.325c-1.481,5.328-5.063,14.626-12.582,17.927-.378.167-.737.335-1.084.5a3.824,3.824,0,0,1,.471-3.457c2.338-3.572-1.882-8.451-1.882-8.451a10.878,10.878,0,0,1-3.545,7c-2.813,2.33-4.164,7.515-2.242,11.769,4.069,15.8,10.162,36.709-13.572,51.98s-57.158-28.82-57.158-28.82l16.589,52.59s25.606,18.9,55.39-7.674,10.042-65.234,10.042-65.234S1492.257,558.347,1482.164,539.049Z" fill="url(#x)"/><path d="M1385.3,582.051c-7.1-2.128-27.772-6.058-47.434,12.087a12.176,12.176,0,0,0-3.508,12.133c5.281,19.443,19.215,76.887,7,101.741,0,0,21.53,23.734,45.019,4.6,0,0,10.539-45.932,24.343-66.1,9.53-13.921-15.2-52.277-21.452-61.543A7.331,7.331,0,0,0,1385.3,582.051Z" fill="url(#y)"/><path d="M1365.7,543.423s-10.5,29.7-11.29,42.8a22.458,22.458,0,0,0,22.54-3.63s1.147-29.665,2.805-34.977Z" fill="url(#z)"/><path d="M1380.284,502.928s27.464,38.433,11.047,49.6-35.967-16.149-35.967-16.149-6.372-21.036.291-28.171S1380.284,502.928,1380.284,502.928Z" fill="url(#aa)"/><path d="M1367.573,493.744s12.616,2.989,14.384,8.7-17.891,11-23.4,11.261l-4.439,23.036s-13.121-21.67-7.923-34.185S1367.573,493.744,1367.573,493.744Z" fill="#1c1c1c"/><path d="M1360.688,533.547s-10.689-12.379-14.941-4.309,9.622,14.13,14.424,10.168Z" fill="url(#ab)"/><path d="M1413.8,809.056c-.081,2.085,3.58,18.625,5.573,27.447a14.53,14.53,0,0,1-1.564,10.423l-69,116.136a15.857,15.857,0,0,0-1.812,4.518c-1.264,5.45-3.887,18.807-2.518,30.958l3.57,7.413-15.438-3.505-3.359-41.459,4.37-2.665a20.771,20.771,0,0,0,8.4-9.833c6.24-15.156,21.734-53.736,25.728-72.538,4.539-21.368,28.268-38.724,28.268-38.724l-4.169-9.856Z" fill="url(#ac)"/><path d="M1315.448,988.18s8.337-13.218,9.318-18.363,3.712-14.23,8.851-11.495c0,0,2.422,24.993,1.587,34.759s11.04,9.451,11.04,9.451a11.1,11.1,0,0,1,5.67,2.857,2.78,2.78,0,0,1-1.864,4.675,66.829,66.829,0,0,1-16.539-.936,5.059,5.059,0,0,1-4.082-4.668l-1.711-28.765L1317.2,988.974Z" fill="url(#ad)"/><path d="M1372.577,827.555s-2.434,103.882-2.764,118.636,2.33,47.451,17.121,57.224l-6.436,4.765s-8.044-6.837-15.9-19.993c-8.827-14.78-11.5-17.48-11.5-17.48l2.929-6a13.192,13.192,0,0,0,1.068-8.46c-3.191-15.469-13.854-66.922-16.763-78-3.433-13.08-3.677-30.547,8.268-45.168S1372.577,827.555,1372.577,827.555Z" fill="url(#ae)"/><path d="M1358.918,1012.861a.907.907,0,0,1-.913-.778c-.493-3.463-2.541-17.348-4.218-20.943-1.921-4.118-8.195-21.448,0-22.919,0,0,20.381,29.777,24.293,33.791s8.851,1.4,8.851,1.4a14.735,14.735,0,0,1,6.686,4.8,2.7,2.7,0,0,1-2.126,4.337l-13.728.131a9.658,9.658,0,0,1-9.055-6.086c-2.416-6.035-6.567-14.888-11.405-18.815l2.514,24.07a.915.915,0,0,1-.9,1.01Z" fill="url(#af)"/><path d="M1389.627,701.416s-3.094,9.86,1.659,26.1l29.481,102.95a3.187,3.187,0,0,1-1.994,3.879c-8.818,3.165-37.807,12.111-77.38,9.383a4.494,4.494,0,0,1-4.1-3.5c-2.607-11.737-11.5-51.781-13.336-60.009-6.979-31.352-14.773-65.162,19.512-85.606C1359.273,701.384,1374.01,705.373,1389.627,701.416Z" fill="#474747"/><path d="M1335.055,598.018s-33.542,27.876-41.867,65.968,49.015,42.14,49.015,42.14,7.784-8.692,17.025-5.592.716-15.171-10.1-15.123-5.8,8.6-21.1,1.669c-14.9-6.749-24.109-27.623,13.907-59.264a17.219,17.219,0,0,0,5.021-6.837C1354.345,602.388,1348.488,590.2,1335.055,598.018Z" fill="url(#ag)"/><path d="M1297.38,733.529a42.725,42.725,0,0,1-16.245-3.05c-6.8-2.948-14.362-11.683-19.176-18.876-10.126-15.128-12.175-32.036-6.091-50.254,4.537-13.588,13.593-28.136,27.685-44.475,6.133-7.112,12.82-14.328,19.875-21.447a.265.265,0,0,1,.377.373c-7.046,7.111-13.725,14.318-19.85,21.42-14.046,16.287-23.069,30.776-27.584,44.3-6.029,18.054-4,34.806,6.028,49.791,4.773,7.13,12.256,15.782,18.947,18.684a43.308,43.308,0,0,0,22.228,2.533.265.265,0,0,1,.085.524A39.4,39.4,0,0,1,1297.38,733.529Z" fill="#bdd0fb"/><path d="M1378.353,498.516a.266.266,0,0,1-.242-.158c-.037-.081-3.742-8.125-14.588-8.125a.265.265,0,0,1,0-.53c11.2,0,15.035,8.356,15.073,8.44a.266.266,0,0,1-.135.35A.26.26,0,0,1,1378.353,498.516Z" fill="#bdd0fb"/><path d="M2060,889.236H1649.114c-21.259,0-38.237,13.777-38.237,31.2v605.587h474.076c7.476,0,13.062-5.478,13.062-12.808V920.432C2098.015,903.013,2081.255,889.236,2060,889.236Z" fill="url(#ah)"/><path d="M2005.114,889.236H1594.233c-21.26,0-38.544,13.777-38.544,31.2v592.58c0,7.33,6.06,13.007,13.536,13.007h460.847c7.476,0,13.817-5.478,13.817-12.808V920.432C2043.889,903.013,2026.374,889.236,2005.114,889.236Z" fill="url(#ai)"/><path d="M1693.035,1526.487H1158.05V1040.325c0-17.766,17.234-32.168,38.494-32.168h458c21.26,0,38.494,14.4,38.494,32.168Z" fill="url(#aj)"/><path d="M1623.983,1526.487H1089V1040.325c0-17.766,17.234-32.168,38.494-32.168h458c21.26,0,38.494,14.4,38.494,32.168Z" fill="url(#ak)"/><path d="M1224.327,1128.03H861.334c-21.259,0-39.006,14.3-39.006,32.063v365.926h426.957c7.476,0,13.484-5.592,13.484-13.068V1160.093C1262.769,1142.327,1245.587,1128.03,1224.327,1128.03Z" fill="url(#al)"/><path d="M1158.421,1128.03H795.429c-21.26,0-38.9,14.3-38.9,32.063v365.926h426.852c7.476,0,13.589-5.592,13.589-13.068V1160.093C1196.968,1142.327,1179.681,1128.03,1158.421,1128.03Z" fill="url(#am)"/><path d="M631.82,774.106s16.8-5.851,48.728-.7,63.082,4.893,72.866,31.413,9.894,71.837,9.894,71.837l-91.945-6.489Z" fill="url(#an)"/><path d="M657.474,1215.385c14.225.654,27.993.243,37.187-.23-8.371-5.957-27.654-18.919-43.79-24.08l-11.077-.663s-3.753,5.709-5.093,18.772C636.537,1211.474,641.9,1214.668,657.474,1215.385Z" fill="url(#ao)"/><path d="M694.775,1215.237l-.114-.082c-9.194.473-22.962.884-37.187.23-15.571-.717-20.937-3.911-22.773-6.2-.062.6-.125,1.2-.176,1.832a5.186,5.186,0,0,0,4.766,5.6c11.65.881,40.534,2.876,54.464,2.145A1.943,1.943,0,0,0,694.775,1215.237Z" fill="url(#ap)"/><path d="M555.736,1211.578c-1.042-6.678-2.712-16.332-4-18.8-2.025-3.872-8.956,0-8.956,0s-4.866,2.269-7.1,6.051c-1.428,2.41-5.376,9.27-8.051,13.926a3.124,3.124,0,0,0-.42,1.658l27.754.972A5.54,5.54,0,0,0,555.736,1211.578Z" fill="url(#aq)"/><path d="M527.2,1214.413a3.161,3.161,0,0,0,3.076,3.072l19.773.544a5.58,5.58,0,0,0,4.905-2.644Z" fill="url(#ar)"/><path d="M557.856,1170.583c-.239.8-3.826,18.186-5.4,25.816a4.357,4.357,0,0,1-4.484,3.482c-1.174-.058-2.541-.164-3.973-.35a5.259,5.259,0,0,1-4.576-5.013c-.255-6.684-.38-19.516,2.075-24.489C544.887,1163.169,557.856,1170.583,557.856,1170.583Z" fill="url(#as)"/><path d="M637.615,1175.56c1.539-.049-.613,7.942,1.714,15.8a4.038,4.038,0,0,0,3.7,3.185c1.2.016,2.616-.007,4.057-.123a4.459,4.459,0,0,0,4.108-4.018l1.893-20.371Z" fill="url(#at)"/><path d="M680.64,959.015c-.687,3.342-24.919,144.684-26.39,217.821a2.488,2.488,0,0,1-2.141,2.424,48.908,48.908,0,0,1-14.876-.1,1.756,1.756,0,0,1-1.446-1.61c-.847-13.63-7.658-128.866.684-183.113,0,0-68.9,145.01-79.344,185a2.1,2.1,0,0,1-2.152,1.574,52.082,52.082,0,0,1-13.96-2.48,3.647,3.647,0,0,1-2.3-4.286c5.835-23.93,46.729-188.8,74.494-225.12Z" fill="url(#au)"/><path d="M636.471,995.345a.9.9,0,0,1-.647-1.536l9.226-9.435a.9.9,0,1,1,1.293,1.265l-9.226,9.434A.9.9,0,0,1,636.471,995.345Z" fill="url(#av)"/><path d="M677.455,733.572s-5.372,32.05-6.092,42.121c0,0,25.94,7.165,32.712,3.323l-.848-38.768Z" fill="url(#aw)"/><path d="M779.75,819.485a4.759,4.759,0,0,1,5.01,5.5L763.676,957.431a4.761,4.761,0,0,1-4.5,4.007l-210.963,8.817a4.759,4.759,0,0,1-4.954-4.557L538.015,839.89a4.759,4.759,0,0,1,4.446-4.948Z" fill="url(#a)"/><path d="M762.906,810.385a4.983,4.983,0,0,1,5.423,5.112l-4.293,143.634a4.982,4.982,0,0,1-4.772,4.829l-210.327,8.791a4.983,4.983,0,0,1-5.16-4.431l-14.6-131.974a4.981,4.981,0,0,1,4.509-5.51Z" fill="#91b3fa"/><path d="M733.714,803.065a6.159,6.159,0,0,1,7.184,5.482L755.11,957.3a6.159,6.159,0,0,1-5.873,6.739L542.1,972.7a6.158,6.158,0,0,1-6.4-5.718l-8.652-122.41a6.157,6.157,0,0,1,5.089-6.5Z" fill="url(#d)"/><path d="M655.855,811.139l-22.707-38.215S585.669,813.6,571.31,870.165l25.182,15.822C606.824,867.53,624.828,842.959,655.855,811.139Z" fill="url(#az)"/><path d="M606.191,969.92a6.163,6.163,0,0,1-5.474-3.585c-2.575-5.593-7.632-16.258-10.278-19.7,0,0,2.912-1.429,8.074-.223s9.533-.9,9.683-3.769L584.062,932.3c-.869-2.464-4.376-16.289,12.43-46.312L571.31,870.165c-5.375,21.177-6.119,44.577,2.023,68.912,0,0,4.749,27.642,14.363,33.23s24.233-2.267,24.233-2.267Z" fill="url(#ba)"/><path d="M706.6,704.031s8.623,19.808,9.2,30.205,2.819,17.142-9.2,19.236-22.148-3.895-27.634-14.251c0,0-8.6-15.958-6.667-22.493S706.6,704.031,706.6,704.031Z" fill="url(#bb)"/><path d="M683.076,731.775h1.52s-6.262-12.843-.76-15.1,27.295-6.7,32-14.433c4.533-7.455.49-17.085-5.558-19.78a.81.81,0,0,0-1.03.38l-.5.948a.816.816,0,0,1-1.506-.154h0a.812.812,0,0,0-1.463-.224c-1.44,2.312-5.337,6.073-15.79,8-14.833,2.738-24.639,8.741-24.88,18.991a.817.817,0,0,1-1.264.67c-1.1-.668-2.847-.981-5.189.988-4.073,3.425-2.406,12.308,6.522,19.616a.811.811,0,0,1-.038,1.308c-1.619,1.054-4.031,3.561,2.22,6.9,6.4,3.419,10.18,3.046,11.609,2.68a.816.816,0,0,0,.618-.844l-.561-9.084a.816.816,0,0,1,.815-.867Z" fill="#1c1c1c"/><path d="M683.449,733.676s-3.289-12.653-8.962-9.106,2.944,14.177,7.505,14.651Z" fill="url(#bc)"/><path d="M1639.676,1367.527l4.29,133.413a43.409,43.409,0,0,0,43.224,41.915l319.48,1.883a31.319,31.319,0,0,0,31.226-26.654c5-33.691,11.361-93.975,4.193-150.557Z" fill="url(#bd)"/><path d="M1995.354,1536.541h0l-2.327-.013a.388.388,0,0,1,0-.776h0l2.327.014a.388.388,0,0,1,0,.775Zm5.427-.036a.388.388,0,0,1-.024-.775c.762-.047,1.53-.125,2.284-.23a.388.388,0,1,1,.108.768c-.774.108-1.562.188-2.343.236Zm-13.185-.009h0l-2.327-.014a.388.388,0,0,1,0-.776h0l2.327.014a.388.388,0,0,1,0,.776Zm-7.756-.046h0l-2.327-.013a.388.388,0,0,1,0-.776h0l2.327.014a.387.387,0,0,1,0,.775Zm-7.757-.046h0l-2.328-.013a.387.387,0,0,1-.385-.39.4.4,0,0,1,.39-.386l2.327.014a.388.388,0,0,1,0,.775Zm-7.757-.045h0l-2.327-.014a.388.388,0,0,1,0-.776h0l2.327.014a.388.388,0,0,1,0,.776Zm-7.758-.046h0l-2.327-.013a.388.388,0,0,1,0-.776h0l2.328.013a.388.388,0,0,1,0,.776Zm-7.757-.046h0l-2.327-.013a.388.388,0,0,1,0-.776h0l2.327.014a.388.388,0,0,1,0,.775Zm-7.756-.046h0l-2.327-.013a.388.388,0,0,1,0-.776h0l2.327.014a.387.387,0,0,1,0,.775Zm-7.758-.045h0l-2.327-.014a.388.388,0,0,1,0-.775h0l2.327.013a.388.388,0,0,1,0,.776Zm-7.757-.046h0l-2.327-.013a.388.388,0,0,1,0-.776h0l2.328.013a.388.388,0,0,1,0,.776Zm-7.757-.046h0l-2.327-.013a.388.388,0,0,1,0-.776h0l2.327.014a.388.388,0,0,1,0,.775Zm-7.757-.045h0l-2.328-.014a.388.388,0,0,1,0-.776h0l2.327.014a.388.388,0,0,1,0,.776Zm-7.757-.046h0l-2.326-.014a.388.388,0,0,1-.386-.39.362.362,0,0,1,.391-.385l2.326.013a.388.388,0,0,1,0,.776Zm-7.757-.046h0l-2.327-.013a.388.388,0,0,1,0-.776h0l2.327.014a.388.388,0,0,1,0,.775Zm-7.757-.045h0l-2.327-.014a.388.388,0,0,1,0-.776h0l2.327.014a.388.388,0,0,1,0,.776Zm-7.757-.046h0l-2.328-.014a.387.387,0,0,1-.385-.39.37.37,0,0,1,.39-.385l2.327.013a.388.388,0,0,1,0,.776Zm-7.757-.046h0l-2.327-.013a.388.388,0,0,1,0-.776h0l2.327.013a.388.388,0,0,1,0,.776Zm-7.758-.046h0l-2.327-.013a.388.388,0,0,1,0-.776h0l2.328.013a.388.388,0,0,1,0,.776Zm-7.756-.045h0l-2.328-.014a.387.387,0,0,1,0-.775h0l2.328.013a.388.388,0,0,1,0,.776Zm-7.757-.046h0l-2.327-.014a.386.386,0,0,1-.385-.39.381.381,0,0,1,.39-.385l2.327.013a.388.388,0,0,1,0,.776Zm-7.758-.046h0l-2.327-.014a.388.388,0,0,1,0-.775h0l2.328.013a.388.388,0,0,1,0,.776Zm-7.757-.045h0l-2.327-.014a.388.388,0,0,1,0-.776h0l2.328.014a.388.388,0,0,1,0,.776Zm-7.757-.046h0l-2.327-.014a.388.388,0,0,1-.386-.39.4.4,0,0,1,.39-.386l2.327.014a.388.388,0,0,1,0,.776Zm-7.757-.046h0l-2.327-.014a.387.387,0,0,1,0-.775h0l2.326.013a.388.388,0,0,1,0,.776Zm-7.757-.046h0l-2.328-.013a.388.388,0,0,1,0-.776h0l2.327.013a.388.388,0,0,1,0,.776Zm-7.757-.045h0l-2.328-.014a.388.388,0,0,1,0-.776h0l2.327.014a.388.388,0,0,1,0,.776Zm-7.757-.046h0l-2.327-.014a.388.388,0,0,1,0-.775h0l2.327.013a.388.388,0,0,1,0,.776Zm-7.757-.046h0l-2.328-.014a.388.388,0,0,1,0-.775h0l2.327.013a.388.388,0,0,1,0,.776Zm-7.757-.045h0l-2.328-.014a.388.388,0,0,1,0-.776h0l2.327.014a.388.388,0,0,1,0,.776Zm-7.757-.046h0l-2.327-.014a.388.388,0,0,1,0-.776h0l2.327.014a.388.388,0,0,1,0,.776Zm-7.757-.046h0l-2.327-.014a.388.388,0,0,1,0-.775h0l2.327.013a.388.388,0,0,1,0,.776Zm-7.757-.045h0l-2.327-.014a.388.388,0,0,1-.385-.391.36.36,0,0,1,.39-.385l2.327.014a.388.388,0,0,1,0,.776Zm-7.757-.046h0l-2.327-.014a.388.388,0,0,1,0-.776h0l2.327.014a.388.388,0,0,1,0,.776Zm261.248-.042a.388.388,0,0,1-.122-.756c.723-.24,1.447-.512,2.149-.808a.388.388,0,1,1,.3.715c-.721.3-1.463.583-2.206.83A.4.4,0,0,1,2008.376,1535.037Zm-269.006,0h0l-2.327-.014a.388.388,0,0,1,0-.775h0l2.328.013a.388.388,0,0,1,0,.776Zm-7.757-.046h0l-2.327-.014a.388.388,0,0,1,0-.775h0l2.327.013a.388.388,0,0,1,0,.776Zm-7.756-.045h0l-2.327-.014a.388.388,0,0,1,0-.776h0l2.327.014a.388.388,0,0,1,0,.776Zm-7.757-.046h0l-2.327-.014a.388.388,0,0,1,0-.776h0l2.327.014a.388.388,0,0,1,0,.776Zm-7.758-.046h0l-2.327-.014a.388.388,0,0,1,0-.775h0l2.328.013a.388.388,0,0,1,0,.776Zm-7.757-.045h0l-2.327-.015a.388.388,0,0,1-.386-.39.381.381,0,0,1,.39-.385l2.327.014a.388.388,0,0,1,0,.776Zm-7.756-.088h-.019c-.777-.039-1.564-.1-2.34-.183a.387.387,0,0,1-.345-.426.4.4,0,0,1,.426-.345c.763.081,1.535.141,2.3.179a.388.388,0,0,1-.019.775Zm-7.664-1.1a.407.407,0,0,1-.091-.011c-.757-.183-1.519-.389-2.266-.614a.388.388,0,0,1,.224-.743c.733.221,1.481.424,2.223.6a.388.388,0,0,1-.09.765Zm330.174-1.946a.388.388,0,0,1-.213-.712c.64-.419,1.268-.867,1.87-1.333a.388.388,0,1,1,.474.614c-.617.478-1.263.938-1.918,1.368A.387.387,0,0,1,2015.339,1531.668Zm-337.5-.567a.38.38,0,0,1-.16-.035c-.709-.32-1.418-.665-2.109-1.025a.388.388,0,1,1,.359-.688c.678.354,1.374.692,2.07,1.006a.388.388,0,0,1-.16.742Zm-6.723-3.832a.383.383,0,0,1-.222-.071c-.636-.445-1.269-.917-1.884-1.4a.388.388,0,0,1,.481-.609c.6.475,1.224.938,1.848,1.375a.388.388,0,0,1-.223.706Zm350.086-.642a.384.384,0,0,1-.259-.1.389.389,0,0,1-.03-.548c.512-.569,1-1.164,1.465-1.767a.388.388,0,1,1,.616.471c-.472.619-.978,1.23-1.5,1.814A.387.387,0,0,1,2021.2,1526.627Zm-355.983-4.375a.387.387,0,0,1-.278-.117c-.545-.56-1.08-1.141-1.591-1.727a.388.388,0,0,1,.585-.51c.5.576,1.027,1.146,1.562,1.7a.388.388,0,0,1-.278.659Zm360.354-2a.4.4,0,0,1-.176-.042.388.388,0,0,1-.17-.522c.343-.676.665-1.378.957-2.085a.388.388,0,1,1,.717.3c-.3.726-.63,1.446-.982,2.14A.389.389,0,0,1,2025.575,1520.248Zm-365.219-4.024a.388.388,0,0,1-.324-.174c-.432-.653-.85-1.324-1.241-1.995a.387.387,0,1,1,.669-.39c.384.657.794,1.316,1.219,1.957a.387.387,0,0,1-.323.6Zm367.783-3.27a.358.358,0,0,1-.08-.009.387.387,0,0,1-.3-.459c.121-.577.226-1.161.31-1.735l.079-.534a.388.388,0,0,1,.768.111l-.08.537c-.086.589-.193,1.188-.318,1.781A.388.388,0,0,1,2028.139,1512.954ZM1656.7,1509.39a.386.386,0,0,1-.357-.238c-.3-.726-.588-1.465-.845-2.195a.388.388,0,1,1,.731-.258c.253.717.532,1.442.829,2.154a.388.388,0,0,1-.208.508A.4.4,0,0,1,1656.7,1509.39Zm372.6-4.106a.326.326,0,0,1-.054,0,.386.386,0,0,1-.331-.437l.317-2.305a.388.388,0,0,1,.768.1l-.317,2.307A.388.388,0,0,1,2029.3,1505.284Zm-374.9-3.3a.388.388,0,0,1-.379-.309c-.159-.763-.3-1.54-.414-2.311a.387.387,0,0,1,.326-.441.391.391,0,0,1,.44.326c.114.756.251,1.519.407,2.268a.387.387,0,0,1-.3.458A.373.373,0,0,1,1654.407,1501.987Zm375.92-4.394a.4.4,0,0,1-.05,0,.388.388,0,0,1-.336-.434q.145-1.141.291-2.308a.377.377,0,0,1,.432-.337.387.387,0,0,1,.337.432q-.144,1.169-.29,2.311A.388.388,0,0,1,2030.327,1497.593Zm-376.786-3.3a.388.388,0,0,1-.388-.375l-.075-2.326a.388.388,0,0,1,.376-.4.375.375,0,0,1,.4.375l.075,2.326a.388.388,0,0,1-.376.4Zm377.722-4.4a.328.328,0,0,1-.045,0,.388.388,0,0,1-.341-.429l.264-2.312a.394.394,0,0,1,.429-.342.389.389,0,0,1,.343.429l-.265,2.314A.388.388,0,0,1,2031.263,1489.891Zm-377.971-3.352a.389.389,0,0,1-.388-.375l-.075-2.327a.386.386,0,0,1,.375-.4.362.362,0,0,1,.4.375l.075,2.326a.389.389,0,0,1-.375.4Zm378.821-4.36a.278.278,0,0,1-.041,0,.387.387,0,0,1-.346-.425q.12-1.149.237-2.315a.4.4,0,0,1,.425-.347.388.388,0,0,1,.346.425q-.117,1.165-.237,2.317A.387.387,0,0,1,2032.113,1482.179Zm-379.07-3.393a.388.388,0,0,1-.388-.375l-.075-2.326a.389.389,0,0,1,.376-.4.382.382,0,0,1,.4.375l.075,2.327a.388.388,0,0,1-.375.4Zm379.831-4.328-.037,0a.388.388,0,0,1-.35-.422q.106-1.152.21-2.316a.4.4,0,0,1,.421-.353.389.389,0,0,1,.352.421q-.1,1.167-.211,2.319A.387.387,0,0,1,2032.874,1474.458Zm-380.081-3.426a.387.387,0,0,1-.387-.375l-.075-2.326a.388.388,0,0,1,.375-.4.368.368,0,0,1,.4.375l.075,2.326a.388.388,0,0,1-.375.4Zm380.75-4.3h-.032a.388.388,0,0,1-.355-.418q.093-1.153.183-2.319a.4.4,0,0,1,.416-.357.388.388,0,0,1,.357.417q-.09,1.165-.184,2.321A.387.387,0,0,1,2033.543,1466.728Zm-381-3.449a.388.388,0,0,1-.388-.375l-.075-2.326a.388.388,0,0,1,.375-.4.366.366,0,0,1,.4.375l.075,2.326a.388.388,0,0,1-.375.4Zm381.575-4.288h-.026a.388.388,0,0,1-.361-.413q.079-1.156.155-2.321a.392.392,0,0,1,.412-.362.388.388,0,0,1,.362.412q-.075,1.167-.155,2.324A.387.387,0,0,1,2034.119,1458.991Zm-381.824-3.465a.388.388,0,0,1-.388-.375l-.075-2.326a.388.388,0,0,1,.776-.025l.075,2.326a.389.389,0,0,1-.376.4Zm382.307-4.279h-.022a.387.387,0,0,1-.365-.409l.125-2.323a.388.388,0,1,1,.775.041l-.126,2.325A.387.387,0,0,1,2034.6,1451.247Zm-382.556-3.474a.388.388,0,0,1-.388-.375l-.075-2.326a.387.387,0,0,1,.375-.4h.013a.389.389,0,0,1,.388.376l.074,2.326a.388.388,0,0,1-.375.4Zm382.939-4.275h-.017a.388.388,0,0,1-.371-.4q.051-1.158.095-2.324a.388.388,0,0,1,.776.03q-.045,1.167-.1,2.327A.386.386,0,0,1,2034.985,1443.5ZM1651.8,1440.02a.389.389,0,0,1-.388-.375l-.074-2.327a.388.388,0,0,1,.375-.4.37.37,0,0,1,.4.375l.074,2.327a.388.388,0,0,1-.375.4Zm383.469-4.275h-.011a.387.387,0,0,1-.376-.4q.033-1.161.063-2.325a.4.4,0,0,1,.4-.378.388.388,0,0,1,.378.4q-.03,1.167-.064,2.329A.388.388,0,0,1,2035.265,1435.745Zm-383.719-3.479a.387.387,0,0,1-.387-.375l-.075-2.326a.388.388,0,0,1,.376-.4.376.376,0,0,1,.4.375l.074,2.326a.387.387,0,0,1-.375.4Zm383.893-4.278h0a.388.388,0,0,1-.384-.394q.018-1.159.03-2.325a.389.389,0,0,1,.388-.384h0a.389.389,0,0,1,.385.392q-.012,1.167-.03,2.329A.388.388,0,0,1,2035.439,1427.988Zm-384.142-3.474a.389.389,0,0,1-.388-.376l-.074-2.326a.388.388,0,0,1,.376-.4.382.382,0,0,1,.4.375l.074,2.326a.388.388,0,0,1-.376.4Zm384.2-4.282a.388.388,0,0,1-.388-.388v-.188q0-1.067,0-2.136a.388.388,0,0,1,.386-.39h0a.389.389,0,0,1,.388.386q0,1.071,0,2.14v.188A.388.388,0,0,1,2035.5,1420.232Zm-384.452-3.472a.389.389,0,0,1-.388-.375l-.075-2.326a.388.388,0,0,1,.375-.4.362.362,0,0,1,.4.375l.075,2.326a.388.388,0,0,1-.375.4Zm384.4-4.283a.388.388,0,0,1-.388-.382q-.018-1.161-.041-2.324a.388.388,0,0,1,.38-.4.42.42,0,0,1,.4.38q.023,1.164.041,2.327a.389.389,0,0,1-.382.394Zm-384.644-3.47a.388.388,0,0,1-.388-.375l-.075-2.326a.387.387,0,0,1,.375-.4.36.36,0,0,1,.4.375l.075,2.326a.389.389,0,0,1-.375.4Zm384.463-4.283a.389.389,0,0,1-.388-.376q-.036-1.161-.08-2.323a.389.389,0,0,1,.374-.4.384.384,0,0,1,.4.373q.044,1.165.079,2.328a.388.388,0,0,1-.375.4Zm-384.713-3.47a.387.387,0,0,1-.387-.375l-.075-2.326a.388.388,0,0,1,.775-.025l.075,2.326a.388.388,0,0,1-.375.4Zm384.4-4.28a.387.387,0,0,1-.387-.369q-.057-1.159-.121-2.321a.389.389,0,0,1,.366-.409.381.381,0,0,1,.409.366q.063,1.164.12,2.326a.388.388,0,0,1-.368.407ZM1650.3,1393.5a.389.389,0,0,1-.388-.376l-.075-2.326a.389.389,0,0,1,.375-.4.377.377,0,0,1,.4.375l.075,2.326a.389.389,0,0,1-.375.4Zm384.194-4.27a.388.388,0,0,1-.386-.362q-.078-1.16-.164-2.319a.388.388,0,0,1,.774-.057q.086,1.161.164,2.324a.388.388,0,0,1-.36.413Zm-384.443-3.484a.388.388,0,0,1-.388-.375l-.075-2.326a.389.389,0,0,1,.376-.4.374.374,0,0,1,.4.375l.075,2.326a.388.388,0,0,1-.376.4Zm383.843-4.251a.386.386,0,0,1-.386-.353q-.1-1.158-.211-2.316a.388.388,0,0,1,.773-.072q.108,1.159.211,2.32a.388.388,0,0,1-.353.42Zm-384.092-3.5a.389.389,0,0,1-.388-.375l-.075-2.326a.389.389,0,0,1,.376-.4.385.385,0,0,1,.4.376l.075,2.326a.388.388,0,0,1-.376.4Zm383.331-4.217a.388.388,0,0,1-.385-.346q-.126-1.156-.26-2.311a.388.388,0,1,1,.771-.089q.133,1.156.26,2.315a.387.387,0,0,1-.344.428A.294.294,0,0,1,2033.133,1373.777Zm-383.58-3.536a.388.388,0,0,1-.388-.375l-.088-2.727h1.407a.388.388,0,0,1,0,.776h-.606l.063,1.926a.389.389,0,0,1-.375.4Zm381.035-2.326h-2.328a.388.388,0,0,1,0-.776h2.328a.388.388,0,0,1,0,.776Zm-7.758,0H2020.5a.388.388,0,1,1,0-.776h2.327a.388.388,0,1,1,0,.776Zm-7.757,0h-2.327a.388.388,0,0,1,0-.776h2.327a.388.388,0,1,1,0,.776Zm-7.757,0h-2.327a.388.388,0,1,1,0-.776h2.327a.388.388,0,0,1,0,.776Zm-7.757,0h-2.327a.388.388,0,1,1,0-.776h2.327a.388.388,0,1,1,0,.776Zm-7.757,0h-2.328a.388.388,0,0,1,0-.776h2.328a.388.388,0,0,1,0,.776Zm-7.758,0h-2.327a.388.388,0,1,1,0-.776h2.327a.388.388,0,1,1,0,.776Zm-7.757,0h-2.327a.388.388,0,0,1,0-.776h2.327a.388.388,0,1,1,0,.776Zm-7.757,0H1966.2a.388.388,0,1,1,0-.776h2.327a.388.388,0,0,1,0,.776Zm-7.757,0h-2.327a.388.388,0,1,1,0-.776h2.327a.388.388,0,1,1,0,.776Zm-7.757,0h-2.328a.388.388,0,0,1,0-.776h2.328a.388.388,0,0,1,0,.776Zm-7.758,0h-2.327a.388.388,0,1,1,0-.776h2.327a.388.388,0,0,1,0,.776Zm-7.757,0h-2.327a.388.388,0,0,1,0-.776h2.327a.388.388,0,1,1,0,.776Zm-7.757,0h-2.327a.388.388,0,0,1,0-.776h2.327a.388.388,0,0,1,0,.776Zm-7.757,0h-2.328a.388.388,0,0,1,0-.776h2.328a.388.388,0,0,1,0,.776Zm-7.758,0H1911.9a.388.388,0,0,1,0-.776h2.327a.388.388,0,0,1,0,.776Zm-7.757,0h-2.327a.388.388,0,1,1,0-.776h2.327a.388.388,0,0,1,0,.776Zm-7.757,0h-2.327a.388.388,0,0,1,0-.776h2.327a.388.388,0,1,1,0,.776Zm-7.757,0h-2.327a.388.388,0,0,1,0-.776h2.327a.388.388,0,0,1,0,.776Zm-7.757,0h-2.328a.388.388,0,0,1,0-.776h2.328a.388.388,0,0,1,0,.776Zm-7.758,0h-2.327a.388.388,0,0,1,0-.776h2.327a.388.388,0,1,1,0,.776Zm-7.757,0h-2.327a.388.388,0,1,1,0-.776h2.327a.388.388,0,0,1,0,.776Zm-7.757,0H1857.6a.388.388,0,1,1,0-.776h2.327a.388.388,0,1,1,0,.776Zm-7.757,0h-2.327a.388.388,0,0,1,0-.776h2.327a.388.388,0,1,1,0,.776Zm-7.757,0h-2.328a.388.388,0,0,1,0-.776h2.328a.388.388,0,0,1,0,.776Zm-7.758,0h-2.327a.388.388,0,0,1,0-.776h2.327a.388.388,0,1,1,0,.776Zm-7.757,0h-2.327a.388.388,0,0,1,0-.776h2.327a.388.388,0,0,1,0,.776Zm-7.757,0h-2.327a.388.388,0,1,1,0-.776h2.327a.388.388,0,1,1,0,.776Zm-7.757,0h-2.327a.388.388,0,0,1,0-.776h2.327a.388.388,0,1,1,0,.776Zm-7.757,0H1803.3a.388.388,0,1,1,0-.776h2.328a.388.388,0,0,1,0,.776Zm-7.758,0h-2.327a.388.388,0,0,1,0-.776h2.327a.388.388,0,1,1,0,.776Zm-7.757,0h-2.327a.388.388,0,0,1,0-.776h2.327a.388.388,0,0,1,0,.776Zm-7.757,0h-2.327a.388.388,0,1,1,0-.776h2.327a.388.388,0,0,1,0,.776Zm-7.757,0h-2.327a.388.388,0,0,1,0-.776h2.327a.388.388,0,1,1,0,.776Zm-7.757,0h-2.328a.388.388,0,0,1,0-.776h2.328a.388.388,0,0,1,0,.776Zm-7.758,0h-2.327a.388.388,0,1,1,0-.776h2.327a.388.388,0,1,1,0,.776Zm-7.757,0H1749a.388.388,0,0,1,0-.776h2.327a.388.388,0,0,1,0,.776Zm-7.757,0h-2.327a.388.388,0,1,1,0-.776h2.327a.388.388,0,0,1,0,.776Zm-7.757,0h-2.327a.388.388,0,1,1,0-.776h2.327a.388.388,0,0,1,0,.776Zm-7.757,0h-2.328a.388.388,0,1,1,0-.776h2.328a.388.388,0,0,1,0,.776Zm-7.758,0h-2.327a.388.388,0,1,1,0-.776h2.327a.388.388,0,1,1,0,.776Zm-7.757,0h-2.327a.388.388,0,0,1,0-.776h2.327a.388.388,0,1,1,0,.776Zm-7.757,0h-2.327a.388.388,0,1,1,0-.776h2.327a.388.388,0,0,1,0,.776Zm-7.757,0H1694.7a.388.388,0,0,1,0-.776h2.328a.388.388,0,0,1,0,.776Zm-7.758,0h-2.327a.388.388,0,0,1,0-.776h2.327a.388.388,0,0,1,0,.776Zm-7.757,0h-2.327a.388.388,0,1,1,0-.776h2.327a.388.388,0,1,1,0,.776Zm-7.757,0h-2.327a.388.388,0,0,1,0-.776h2.327a.388.388,0,1,1,0,.776Zm-7.757,0h-2.327a.388.388,0,0,1,0-.776H1666a.388.388,0,0,1,0,.776Zm-7.757,0h-2.328a.388.388,0,0,1,0-.776h2.328a.388.388,0,0,1,0,.776Z" fill="#bdd0fb"/><path d="M1733.305,1270.676l.961-10.29a7.911,7.911,0,0,1,6-4.619c9.953-1.584,34.638-4.369,46.523,4.513l1.776,11.957Z" fill="url(#be)"/><path d="M1764.4,1260.775a14.28,14.28,0,0,1-6.888-.007,6.221,6.221,0,0,1-4.746-6.027v-32.219h16.4v32.2A6.244,6.244,0,0,1,1764.4,1260.775Z" fill="url(#bf)"/><path d="M1892.113,1270.676l.962-10.29a7.91,7.91,0,0,1,6-4.619c9.954-1.584,34.638-4.369,46.524,4.513l1.775,11.957Z" fill="url(#bg)"/><path d="M1923.2,1260.775a14.276,14.276,0,0,1-6.887-.007,6.221,6.221,0,0,1-4.746-6.027v-35.613h16.4v35.589A6.244,6.244,0,0,1,1923.2,1260.775Z" fill="url(#bh)"/><path d="M1751.1,1230.42l176.33-5.837a8.5,8.5,0,0,0,8.121-6.977,71.847,71.847,0,0,0,.548-22.351,20.339,20.339,0,0,0-19.714-17.214c-32.9-.783-116.635-.759-162.789,17.5a16.12,16.12,0,0,0-9.738,11.184,39.088,39.088,0,0,0-.422,17.906A7.589,7.589,0,0,0,1751.1,1230.42Z" fill="url(#bi)"/><path d="M1748.046,1221.256a.777.777,0,0,1-.772-.7,41.362,41.362,0,0,1,1.057-13.288,14.7,14.7,0,0,1,10.012-10.175c9.823-2.883,28.592-7.783,43.93-8.213a.776.776,0,1,1,.044,1.551c-15.163.425-33.786,5.289-43.538,8.15a13.14,13.14,0,0,0-8.952,9.092,40.473,40.473,0,0,0-1.009,12.727.775.775,0,0,1-.693.85C1748.1,1221.254,1748.071,1221.256,1748.046,1221.256Z" fill="#bdd0fb"/><path d="M1651.494,1266.667c56.966-.728,303.4-3.317,374.984,5.319a14.576,14.576,0,0,1,12.527,11.288c4.23,19.122,12.74,63.544,11.731,107.578a12.76,12.76,0,0,1-10.447,12.168l-163.4,30.913h-58.043l-174.106-34.608a13.615,13.615,0,0,1-10.979-12.639c-1.131-22.153-2.9-74.133,3.091-107.591A15.066,15.066,0,0,1,1651.494,1266.667Z" fill="url(#bj)"/><path d="M1875.543,1420.241h-2.327a.388.388,0,0,1,0-.776h2.327a.388.388,0,1,1,0,.776Zm-7.757,0h-2.327a.388.388,0,0,1,0-.776h2.327a.388.388,0,0,1,0,.776Zm-7.757,0H1857.7a.388.388,0,1,1,0-.776h2.327a.388.388,0,0,1,0,.776Zm-7.757,0h-2.327a.388.388,0,0,1,0-.776h2.327a.388.388,0,1,1,0,.776Zm-7.757,0h-2.328a.388.388,0,0,1,0-.776h2.328a.388.388,0,0,1,0,.776Zm-7.758,0h-2.327a.388.388,0,1,1,0-.776h2.327a.388.388,0,1,1,0,.776Zm-7.757,0h-2.327a.388.388,0,0,1,0-.776H1829a.388.388,0,0,1,0,.776Zm-7.757,0h-1.013l-2.358-.461a.388.388,0,0,1,.151-.761l2.283.454.937-.008a.388.388,0,0,1,0,.776Zm59.636-1.005a.388.388,0,0,1-.071-.769l2.286-.433a.388.388,0,1,1,.144.762l-2.287.433A.437.437,0,0,1,1880.879,1419.236Zm-68.257-.508a.383.383,0,0,1-.076-.007l-2.283-.454a.388.388,0,0,1,.152-.76l2.282.453a.388.388,0,0,1-.075.768Zm75.879-.934a.388.388,0,0,1-.071-.769l2.286-.433a.388.388,0,1,1,.144.762l-2.286.433A.446.446,0,0,1,1888.5,1417.794Zm-83.487-.578a.384.384,0,0,1-.076-.007l-2.283-.454a.388.388,0,1,1,.152-.76l2.282.453a.388.388,0,0,1-.075.768Zm91.109-.864a.388.388,0,0,1-.071-.769l2.287-.433a.392.392,0,0,1,.453.309.387.387,0,0,1-.31.453l-2.287.433A.435.435,0,0,1,1896.123,1416.352Zm-98.717-.648a.337.337,0,0,1-.077-.008l-2.282-.453a.388.388,0,1,1,.151-.761l2.282.454a.388.388,0,0,1-.074.768Zm106.339-.794a.388.388,0,0,1-.071-.769l2.286-.433a.388.388,0,0,1,.144.762l-2.286.433A.448.448,0,0,1,1903.745,1414.91Zm-113.947-.718a.4.4,0,0,1-.077-.008l-2.282-.454a.387.387,0,1,1,.151-.76l2.282.453a.388.388,0,0,1-.074.769Zm121.569-.724a.388.388,0,0,1-.072-.769l2.288-.433a.388.388,0,1,1,.143.762l-2.287.433A.359.359,0,0,1,1911.367,1413.468Zm-129.178-.789a.4.4,0,0,1-.077-.007l-2.282-.454a.388.388,0,0,1,.151-.761l2.283.454a.388.388,0,0,1-.075.768Zm136.8-.653a.388.388,0,0,1-.071-.769l2.286-.433a.388.388,0,0,1,.144.762l-2.286.433A.463.463,0,0,1,1918.989,1412.026Zm-144.408-.859a.337.337,0,0,1-.077-.008l-2.282-.454a.387.387,0,1,1,.151-.76l2.283.454a.388.388,0,0,1-.075.768Zm152.03-.583a.388.388,0,0,1-.072-.769l2.287-.433a.388.388,0,0,1,.144.762l-2.287.433A.35.35,0,0,1,1926.611,1410.584Zm-159.639-.93a.384.384,0,0,1-.076-.007l-2.283-.454a.388.388,0,1,1,.152-.76l2.282.453a.388.388,0,0,1-.075.768Zm167.261-.512a.388.388,0,0,1-.071-.769l2.286-.433a.388.388,0,0,1,.144.762l-2.286.433A.362.362,0,0,1,1934.233,1409.142Zm-174.869-1a.384.384,0,0,1-.076-.007l-2.283-.454a.387.387,0,0,1-.3-.456.381.381,0,0,1,.456-.3l2.282.454a.388.388,0,0,1-.075.768Zm182.491-.442a.388.388,0,0,1-.072-.769l2.287-.433a.392.392,0,0,1,.453.31.387.387,0,0,1-.309.453l-2.287.432A.351.351,0,0,1,1941.855,1407.7Zm-190.1-1.07a.328.328,0,0,1-.076-.008l-2.283-.454a.388.388,0,0,1,.152-.76l2.282.454a.388.388,0,0,1-.075.768Zm197.722-.372a.388.388,0,0,1-.071-.769l2.286-.433a.388.388,0,0,1,.144.762l-2.286.433A.362.362,0,0,1,1949.477,1406.258Zm-205.33-1.141a.4.4,0,0,1-.076-.007l-2.283-.454a.388.388,0,0,1,.152-.76l2.282.453a.388.388,0,0,1-.075.768Zm212.952-.3a.388.388,0,0,1-.072-.769l2.287-.433a.388.388,0,0,1,.144.763l-2.287.432A.351.351,0,0,1,1957.1,1404.816Zm-220.56-1.211a.336.336,0,0,1-.077-.008l-2.282-.453a.388.388,0,1,1,.151-.761l2.283.454a.388.388,0,0,1-.075.768Zm228.182-.231a.388.388,0,0,1-.071-.769l2.286-.432a.387.387,0,1,1,.144.761l-2.286.433A.367.367,0,0,1,1964.721,1403.374Zm-235.79-1.281a.4.4,0,0,1-.077-.008l-2.282-.454a.387.387,0,1,1,.151-.76l2.283.453a.388.388,0,0,1-.075.769Zm243.412-.161a.388.388,0,0,1-.072-.769l2.287-.433a.388.388,0,0,1,.144.763l-2.287.432A.352.352,0,0,1,1972.343,1401.932Zm-251.021-1.351a.4.4,0,0,1-.077-.008l-2.282-.454a.387.387,0,1,1,.151-.76l2.283.453a.388.388,0,0,1-.075.769Zm258.643-.091a.388.388,0,0,1-.071-.769l2.286-.432a.388.388,0,0,1,.144.762l-2.286.432A.367.367,0,0,1,1979.965,1400.49Zm-266.251-1.422a.337.337,0,0,1-.077-.008l-2.282-.453a.388.388,0,0,1,.151-.761l2.283.454a.388.388,0,0,1-.075.768Zm273.873-.02a.388.388,0,0,1-.072-.769l2.287-.433a.388.388,0,0,1,.144.763l-2.287.432A.352.352,0,0,1,1987.587,1399.048Zm7.622-1.442a.388.388,0,0,1-.071-.769l2.286-.432a.388.388,0,1,1,.144.762l-2.286.432A.367.367,0,0,1,1995.209,1397.606Zm-289.1-.05a.383.383,0,0,1-.076-.008l-2.283-.454a.388.388,0,0,1,.152-.76l2.282.454a.388.388,0,0,1-.075.768Zm296.726-1.392a.388.388,0,0,1-.072-.769l2.287-.432a.391.391,0,0,1,.453.309.387.387,0,0,1-.309.453l-2.287.432A.35.35,0,0,1,2002.831,1396.164Zm-304.334-.121a.39.39,0,0,1-.076-.007l-2.283-.454a.388.388,0,0,1,.152-.761l2.282.454a.388.388,0,0,1-.075.768Zm311.956-1.321a.388.388,0,0,1-.071-.769l2.286-.432a.388.388,0,0,1,.144.762l-2.286.432A.368.368,0,0,1,2010.453,1394.722Zm-319.564-.191a.33.33,0,0,1-.077-.008l-2.282-.454a.387.387,0,0,1-.305-.456.382.382,0,0,1,.456-.3l2.283.454a.388.388,0,0,1-.075.768Zm327.186-1.251a.388.388,0,0,1-.072-.769l2.287-.432a.388.388,0,1,1,.144.762l-2.287.432A.351.351,0,0,1,2018.075,1393.28Zm-334.794-.262a.4.4,0,0,1-.077-.007l-2.282-.454a.387.387,0,1,1,.151-.76l2.282.453a.388.388,0,0,1-.074.768Zm342.416-1.18a.388.388,0,0,1-.071-.769l2.286-.433a.391.391,0,0,1,.453.309.387.387,0,0,1-.309.453l-2.286.433A.368.368,0,0,1,2025.7,1391.838Zm-350.026-.332a.4.4,0,0,1-.076-.007l-2.282-.454a.388.388,0,0,1,.151-.761l2.283.454a.388.388,0,0,1-.076.768Zm357.648-1.11a.388.388,0,0,1-.072-.769l2.287-.433a.388.388,0,0,1,.144.762l-2.287.433A.351.351,0,0,1,2033.319,1390.4Zm-365.255-.4a.335.335,0,0,1-.077-.008l-2.282-.454a.387.387,0,1,1,.151-.76l2.283.454a.388.388,0,0,1-.075.768Zm-7.609-1.513a.383.383,0,0,1-.076-.007l-2.283-.454a.388.388,0,1,1,.152-.76l2.282.453a.388.388,0,0,1-.075.768Zm-7.608-1.512a.323.323,0,0,1-.076-.008l-2.283-.453a.388.388,0,0,1,.152-.761l2.282.454a.388.388,0,0,1-.075.768Zm383.888-1.542h0a.389.389,0,0,1-.386-.39l0-1.405v-.919a.388.388,0,0,1,.387-.389h0a.387.387,0,0,1,.387.387l0,.921,0,1.409A.388.388,0,0,1,2036.735,1385.427Zm-389.06-2.072a.387.387,0,0,1-.387-.369l-.108-2.327a.387.387,0,0,1,.37-.405.363.363,0,0,1,.4.37l.108,2.324a.388.388,0,0,1-.369.406Zm389-5.685a.389.389,0,0,1-.388-.38q-.023-1.163-.053-2.322a.389.389,0,0,1,.377-.4h.011a.388.388,0,0,1,.388.378q.03,1.161.053,2.326a.388.388,0,0,1-.38.4ZM1647.34,1375.6a.388.388,0,0,1-.388-.373l-.087-2.327a.387.387,0,0,1,.373-.4h.015a.389.389,0,0,1,.388.374l.087,2.325a.389.389,0,0,1-.373.4Zm389.1-5.681a.389.389,0,0,1-.388-.372q-.049-1.16-.1-2.317a.388.388,0,1,1,.775-.036q.054,1.158.1,2.321a.387.387,0,0,1-.371.4Zm-389.368-2.074a.389.389,0,0,1-.388-.376l-.066-2.328a.388.388,0,0,1,.377-.4h.011a.388.388,0,0,1,.388.377l.066,2.326a.388.388,0,0,1-.376.4Zm388.968-5.669a.389.389,0,0,1-.387-.364q-.07-1.164-.15-2.321a.387.387,0,0,1,.361-.413.381.381,0,0,1,.413.361q.079,1.159.15,2.325a.387.387,0,0,1-.363.411Zm-389.168-2.087a.387.387,0,0,1-.387-.379l-.047-2.329a.387.387,0,0,1,.38-.4.393.393,0,0,1,.4.38l.047,2.327a.388.388,0,0,1-.379.4Zm388.62-5.654a.388.388,0,0,1-.386-.356q-.094-1.164-.193-2.319a.388.388,0,0,1,.773-.066q.1,1.156.193,2.322a.389.389,0,0,1-.355.418Zm-388.749-2.1a.387.387,0,0,1-.388-.383l-.025-2.328a.388.388,0,0,1,.384-.392h0a.388.388,0,0,1,.388.384l.025,2.327a.388.388,0,0,1-.384.392Zm388.059-5.626a.387.387,0,0,1-.385-.349q-.116-1.163-.233-2.315a.388.388,0,0,1,.345-.426.394.394,0,0,1,.426.347q.119,1.154.234,2.317a.39.39,0,0,1-.349.425Zm-388.113-2.132a.389.389,0,0,1-.388-.387v-2.329a.389.389,0,0,1,.388-.387h0a.386.386,0,0,1,.387.388v.994l0,1.332a.387.387,0,0,1-.387.389Zm387.292-5.585a.389.389,0,0,1-.385-.344q-.133-1.161-.27-2.31a.388.388,0,1,1,.77-.092q.137,1.15.271,2.314a.388.388,0,0,1-.342.429Zm-387.264-2.17h0a.388.388,0,0,1-.384-.391l.026-2.326a.378.378,0,0,1,.392-.383.389.389,0,0,1,.384.393l-.026,2.323A.387.387,0,0,1,1646.717,1336.821Zm386.32-5.532a.387.387,0,0,1-.384-.338q-.153-1.161-.306-2.306a.386.386,0,0,1,.332-.436.39.39,0,0,1,.436.332q.155,1.146.307,2.309a.387.387,0,0,1-.334.435A.3.3,0,0,1,2033.037,1331.289Zm-386.2-2.221h-.009a.387.387,0,0,1-.379-.4q.025-1.164.055-2.328a.4.4,0,0,1,.4-.377.389.389,0,0,1,.378.4q-.03,1.163-.055,2.324A.388.388,0,0,1,1646.837,1329.068Zm385.138-5.468a.388.388,0,0,1-.383-.331c-.114-.774-.226-1.542-.341-2.3a.388.388,0,0,1,.326-.441.393.393,0,0,1,.441.326q.171,1.141.342,2.3a.388.388,0,0,1-.328.44A.358.358,0,0,1,2031.975,1323.6Zm-384.915-2.288h-.013a.39.39,0,0,1-.375-.4q.044-1.165.09-2.329a.38.38,0,0,1,.4-.372.388.388,0,0,1,.372.4q-.048,1.162-.09,2.326A.387.387,0,0,1,1647.06,1321.312Zm383.738-5.382a.388.388,0,0,1-.382-.327q-.186-1.161-.374-2.3a.388.388,0,0,1,.765-.127q.188,1.137.375,2.3a.388.388,0,0,1-.322.445A.431.431,0,0,1,2030.8,1315.93Zm-383.393-2.374h-.02a.387.387,0,0,1-.367-.408q.062-1.167.129-2.33a.388.388,0,0,1,.775.045q-.069,1.159-.13,2.326A.388.388,0,0,1,1647.405,1313.556Zm382.108-5.281a.386.386,0,0,1-.381-.32q-.205-1.164-.408-2.291a.388.388,0,0,1,.764-.138q.2,1.13.407,2.294a.389.389,0,0,1-.314.45A.546.546,0,0,1,2029.513,1308.275Zm-381.621-2.468h-.029a.388.388,0,0,1-.359-.415q.086-1.167.178-2.323a.392.392,0,0,1,.418-.356.387.387,0,0,1,.355.417q-.091,1.153-.177,2.319A.387.387,0,0,1,1647.892,1305.807Zm380.225-5.166a.389.389,0,0,1-.381-.315q-.222-1.17-.44-2.285a.388.388,0,0,1,.761-.149q.219,1.117.441,2.288a.387.387,0,0,1-.308.454A.367.367,0,0,1,2028.117,1300.641Zm-379.567-2.564-.039,0a.387.387,0,0,1-.348-.424q.116-1.169.237-2.319a.4.4,0,0,1,.427-.345.389.389,0,0,1,.345.427q-.123,1.149-.237,2.313A.388.388,0,0,1,1648.55,1298.077Zm378.056-5.05a.387.387,0,0,1-.379-.31q-.245-1.185-.476-2.278a.388.388,0,1,1,.76-.16q.229,1.094.475,2.282a.387.387,0,0,1-.3.458A.433.433,0,0,1,2026.606,1293.027Zm-377.182-2.659a.447.447,0,0,1-.051,0,.388.388,0,0,1-.335-.434q.152-1.167.314-2.312a.388.388,0,0,1,.768.109q-.162,1.14-.312,2.3A.389.389,0,0,1,1649.424,1290.368Zm374.7-4.1-.046,0q-1.12-.132-2.309-.261a.389.389,0,0,1-.344-.428.4.4,0,0,1,.428-.343q1.191.129,2.316.261a.388.388,0,0,1-.045.774Zm-7.716-.8-.036,0q-1.134-.1-2.317-.208a.388.388,0,0,1-.352-.42.383.383,0,0,1,.42-.353q1.185.1,2.32.208a.388.388,0,0,1-.035.775Zm-7.731-.651h-.029q-1.141-.089-2.32-.174a.387.387,0,1,1,.056-.773q1.18.086,2.323.173a.388.388,0,0,1-.03.775Zm-7.739-.547h-.025l-2.321-.148a.388.388,0,0,1-.363-.412.377.377,0,0,1,.411-.363l2.323.149a.388.388,0,0,1-.025.775Zm-7.743-.471h-.023l-2.322-.129a.387.387,0,0,1-.366-.408.375.375,0,0,1,.408-.366l2.324.129a.388.388,0,0,1-.021.775Zm-7.747-.412h-.019l-2.325-.113a.388.388,0,0,1-.368-.406.382.382,0,0,1,.406-.369l2.326.113a.388.388,0,0,1-.02.776Zm-7.749-.364h-.017l-2.325-.1a.388.388,0,0,1-.371-.4.369.369,0,0,1,.4-.371l2.325.1a.388.388,0,0,1-.016.775Zm-7.751-.323h-.015l-2.326-.09a.388.388,0,0,1-.372-.4.373.373,0,0,1,.4-.373l2.325.09a.388.388,0,0,1-.015.776Zm-319.363-.005a.381.381,0,0,1-.067-.005.388.388,0,0,1-.315-.449l.129-.731a1.373,1.373,0,0,1,1.34-1.152l.2,0a.393.393,0,0,1,.4.382.388.388,0,0,1-.381.394l-.205,0a.606.606,0,0,0-.587.512l-.129.728A.386.386,0,0,1,1650.581,1282.695Zm311.611-.285h-.014l-2.326-.081a.388.388,0,0,1-.374-.4.4.4,0,0,1,.4-.374l2.325.081a.388.388,0,0,1-.013.775Zm-7.753-.26h-.012l-2.327-.073a.388.388,0,0,1,.013-.776h.012l2.326.074a.388.388,0,0,1-.012.775Zm-7.754-.235h-.012l-2.325-.066a.388.388,0,0,1-.378-.4.4.4,0,0,1,.4-.378l2.327.066a.388.388,0,0,1-.011.776Zm-7.755-.212h-.011l-2.325-.06a.386.386,0,0,1-.378-.4.4.4,0,0,1,.4-.378l2.327.059a.388.388,0,0,1-.01.776Zm-7.756-.191h-.009l-2.326-.054a.388.388,0,0,1-.379-.4.4.4,0,0,1,.4-.379l2.326.054a.388.388,0,0,1-.009.776Zm-7.756-.174h-.005l-2.329-.048a.389.389,0,0,1-.38-.4.415.415,0,0,1,.4-.38l2.327.048a.388.388,0,0,1-.009.776Zm-7.755-.156h-.008l-2.326-.044a.388.388,0,0,1-.381-.395.419.419,0,0,1,.394-.381l2.328.044a.388.388,0,0,1-.007.776Zm-258.353-.119a.388.388,0,0,1-.005-.775l2.328-.028h0a.388.388,0,0,1,0,.775l-2.328.028Zm250.6-.022h-.007l-2.326-.039a.388.388,0,0,1,.006-.776h.006l2.328.039a.388.388,0,0,1-.007.776Zm-242.835-.069a.388.388,0,0,1-.005-.776l2.329-.026a.384.384,0,0,1,.392.384.388.388,0,0,1-.383.392l-2.329.026Zm235.077-.058h-.006l-2.326-.035a.388.388,0,0,1,.012-.776l2.326.035a.388.388,0,0,1-.006.776Zm-227.316-.027a.388.388,0,0,1-.005-.776l2.329-.025a.382.382,0,0,1,.391.384.387.387,0,0,1-.384.392l-2.327.025Zm7.761-.081a.388.388,0,0,1,0-.775l2.328-.024h0a.388.388,0,0,1,0,.776l-2.328.023Zm211.8-.006h-.005l-2.327-.031a.388.388,0,0,1-.383-.393.376.376,0,0,1,.393-.383l2.327.032a.388.388,0,0,1-.005.775Zm-204.041-.07a.388.388,0,0,1,0-.775l2.328-.022h0a.388.388,0,0,1,.005.776l-2.328.021Zm196.284-.031h-.005l-2.327-.029a.388.388,0,0,1,.005-.775h0l2.327.028a.388.388,0,0,1,0,.776Zm-188.523-.039a.388.388,0,0,1,0-.776l2.329-.02a.388.388,0,1,1,.006.776l-2.327.02Zm180.765-.052h0l-2.327-.025a.388.388,0,0,1,0-.776h0l2.327.025a.388.388,0,0,1,0,.776Zm-173.005-.014a.388.388,0,0,1,0-.776l2.328-.019h0a.388.388,0,0,1,0,.776l-2.327.019Zm7.76-.061a.387.387,0,0,1,0-.775l2.328-.018h0a.388.388,0,0,1,0,.776l-2.328.017Zm157.488,0h0l-2.327-.022a.388.388,0,0,1,0-.776h0l2.327.022a.388.388,0,0,1,0,.776Zm-149.729-.052a.388.388,0,0,1,0-.775l2.329-.016h0a.388.388,0,0,1,0,.775l-2.327.016Zm141.973-.018h0l-2.327-.019a.388.388,0,0,1,0-.776h0l2.327.019a.388.388,0,0,1,0,.776Zm-134.213-.033a.388.388,0,0,1,0-.776l2.328-.014h0a.388.388,0,0,1,0,.776l-2.328.014Zm126.456-.027h0l-2.327-.017a.387.387,0,0,1,0-.775h0l2.327.016a.388.388,0,0,1,0,.776Zm-118.7-.019a.388.388,0,0,1,0-.776l2.328-.013h0a.388.388,0,0,1,0,.776l-2.327.013Zm110.939-.033h0l-2.328-.013a.388.388,0,0,1,0-.776h0l2.327.013a.388.388,0,0,1,0,.776Zm-103.179-.009a.388.388,0,0,1,0-.775l2.328-.012h0a.388.388,0,0,1,0,.776l-2.326.011Zm95.422-.034h0l-2.327-.011a.388.388,0,0,1,0-.776h0l2.328.012a.387.387,0,0,1,0,.775Zm-87.664,0a.388.388,0,1,1,0-.775l2.328-.01a.367.367,0,0,1,.389.387.387.387,0,0,1-.386.389l-2.328.009Zm7.761-.031a.388.388,0,0,1,0-.775l2.328-.008h0a.387.387,0,0,1,0,.775l-2.328.008Zm72.145,0h0l-2.327-.01a.388.388,0,0,1,0-.775h0l2.327.009a.388.388,0,0,1,0,.776Zm-64.387-.024a.388.388,0,0,1,0-.775l2.329-.007h0a.388.388,0,0,1,0,.776l-2.328.006Zm56.63,0h0l-2.327-.007a.388.388,0,0,1,0-.775h0l2.327.007a.387.387,0,0,1,0,.775Zm-48.871-.016a.387.387,0,1,1,0-.775l2.328-.005h0a.388.388,0,0,1,0,.776l-2.328,0Zm41.113,0h0l-2.328,0a.388.388,0,0,1,0-.776h0l2.327,0a.388.388,0,0,1,0,.776Zm-33.353-.01a.388.388,0,1,1,0-.775l2.328,0h0a.388.388,0,0,1,0,.775l-2.328,0Zm25.6,0h0l-2.326,0a.388.388,0,1,1,0-.776h0l2.327,0a.388.388,0,1,1,0,.775Zm-17.837-.005a.388.388,0,1,1,0-.775l2.323,0a.388.388,0,0,1,0,.776Zm10.079,0h-2.327a.388.388,0,1,1,0-.776h2.327a.388.388,0,0,1,0,.776Z" fill="#bdd0fb"/><path d="M1871.422,1458.3h-50.85a13.137,13.137,0,0,1-13.066-11.543l-5.875-48.931a13.119,13.119,0,0,1,13.066-14.652h61.088a13.122,13.122,0,0,1,13.108,14.255l-4.363,48.932A13.135,13.135,0,0,1,1871.422,1458.3Z" fill="url(#bk)"/><path d="M1865.168,1449.3h-38.7a10,10,0,0,1-9.945-8.786l-4.471-37.242a9.986,9.986,0,0,1,9.945-11.152h46.494a9.988,9.988,0,0,1,9.977,10.85l-3.321,37.242A10,10,0,0,1,1865.168,1449.3Z" fill="url(#bl)"/><path d="M502.272,917.436l-2.358-5.9a1.423,1.423,0,0,1,2.642-1.056v0l.024.06,2.3,5.782.023.058a1.418,1.418,0,0,1-2.634,1.051Z" fill="url(#bm)"/><path d="M495.533,897.372l-1.325-6.229a1.435,1.435,0,1,1,2.807-.6v0l.017.082,1.283,6.068.017.081a1.431,1.431,0,0,1-2.8.593Z" fill="url(#bm)"/><path d="M492.641,876.354q-.087-3.192.054-6.387a1.449,1.449,0,0,1,2.895.13v0q-.143,3.086-.061,6.178a1.445,1.445,0,0,1-2.888.077Z" fill="url(#bm)"/><path d="M494.682,855.192q.713-3.12,1.669-6.177a1.462,1.462,0,0,1,2.79.873v0q-.926,2.941-1.616,5.952a1.458,1.458,0,0,1-2.842-.65Z" fill="url(#bm)"/><path d="M502.086,835.249q1.49-2.829,3.185-5.542a1.475,1.475,0,0,1,2.5,1.562v0q-1.64,2.617-3.084,5.35a1.471,1.471,0,0,1-2.6-1.372Z" fill="url(#bm)"/><path d="M514.145,817.757l4.329-4.679a1.487,1.487,0,1,1,2.184,2.02h0l-.061.065-4.211,4.542-.063.067a1.483,1.483,0,0,1-2.176-2.016Z" fill="url(#bm)"/><path d="M529.542,803.184l5.083-3.817a1.5,1.5,0,0,1,1.8,2.4h0l-.057.042-4.973,3.725-.058.043a1.5,1.5,0,0,1-1.795-2.394Z" fill="url(#bm)"/><path d="M547.1,791.38l5.558-3.054a1.514,1.514,0,0,1,1.458,2.653h0l-.05.027L548.6,794l-.051.028a1.51,1.51,0,0,1-1.452-2.647Z" fill="url(#bm)"/><path d="M566.008,781.986l5.858-2.4a1.527,1.527,0,0,1,1.159,2.825h0l-.042.018-5.775,2.36-.044.018a1.523,1.523,0,0,1-1.154-2.818Z" fill="url(#bm)"/><path d="M585.779,774.644l6.048-1.846a1.54,1.54,0,1,1,.9,2.945h0l-.038.011-5.974,1.816-.038.012a1.536,1.536,0,0,1-.9-2.939Z" fill="url(#bm)"/><path d="M606.1,769.068l6.171-1.364a1.553,1.553,0,0,1,.67,3.033h0l-.033.007-6.106,1.341-.033.008a1.549,1.549,0,0,1-.667-3.025Z" fill="url(#bm)"/><path d="M626.765,765.034l6.246-.935a1.566,1.566,0,0,1,.464,3.1h0l-.03.005-6.187.918-.031,0a1.562,1.562,0,0,1-.46-3.09Z" fill="url(#bm)"/><path d="M647.645,762.379l6.288-.546a1.579,1.579,0,0,1,.274,3.147h0l-.028,0-6.234.534-.028,0a1.576,1.576,0,0,1-.27-3.14Z" fill="url(#bm)"/><path d="M668.637,760.982l6.308-.189a1.592,1.592,0,1,1,.095,3.183h-.028l-6.256.179h-.026a1.588,1.588,0,0,1-.093-3.175Z" fill="url(#bm)"/><path d="M689.671,760.751l6.309.147a1.605,1.605,0,0,1-.075,3.21h-.027l-6.259-.154h-.025a1.6,1.6,0,0,1,.077-3.2Z" fill="url(#bm)"/><path d="M710.686,761.62l6.293.468a1.618,1.618,0,1,1-.24,3.228h0l-.024,0-6.244-.472-.024,0a1.615,1.615,0,0,1,.241-3.22Z" fill="url(#bm)"/><path d="M731.63,763.544l6.261.777a1.631,1.631,0,0,1-.4,3.238h0l-.024,0-6.213-.779-.023,0a1.628,1.628,0,0,1,.4-3.23Z" fill="url(#bm)"/><path d="M752.452,766.489l6.217,1.08a1.644,1.644,0,1,1-.563,3.24h0l-.023,0-6.168-1.079-.024,0a1.641,1.641,0,0,1,.563-3.233Z" fill="url(#bm)"/><path d="M773.1,770.409l6.162,1.312a1.656,1.656,0,1,1-.69,3.239h0l-.013,0-6.134-1.312-.013,0a1.653,1.653,0,0,1,.689-3.233Z" fill="url(#bm)"/><path d="M793.6,774.968l6.124,1.472a1.667,1.667,0,1,1-.778,3.241h0l-.012,0-6.1-1.471-.013,0a1.664,1.664,0,0,1,.779-3.235Z" fill="url(#bm)"/><path d="M813.968,780.054l6.085,1.625a1.677,1.677,0,1,1-.866,3.241h0l-.012,0-6.059-1.625-.012,0a1.674,1.674,0,0,1,.866-3.234Z" fill="url(#bm)"/><path d="M834.2,785.645l6.043,1.772a1.688,1.688,0,1,1-.95,3.24h0l-.012,0-6.018-1.772-.011,0a1.685,1.685,0,0,1,.95-3.233Z" fill="url(#bm)"/><path d="M854.3,791.719l6,1.913a1.7,1.7,0,0,1-1.032,3.237h0l-.011,0-5.976-1.912-.011,0a1.7,1.7,0,0,1,1.032-3.23Z" fill="url(#bm)"/><path d="M874.246,798.253,880.2,800.3a1.709,1.709,0,1,1-1.111,3.233h0l-.01,0-5.932-2.045-.011,0a1.706,1.706,0,0,1,1.111-3.227Z" fill="url(#bm)"/><path d="M894.044,805.223l5.91,2.173a1.72,1.72,0,0,1-1.187,3.229h0l-.009,0-5.888-2.17-.01,0a1.717,1.717,0,0,1,1.186-3.223Z" fill="url(#bm)"/><path d="M913.691,812.6l5.864,2.291a1.731,1.731,0,1,1-1.259,3.224l-.011-.005-5.844-2.289a1.728,1.728,0,1,1,1.25-3.221Z" fill="url(#bm)"/><path d="M933.186,820.373l5.819,2.4a1.741,1.741,0,1,1-1.329,3.219l-.01,0-5.8-2.4a1.738,1.738,0,1,1,1.319-3.217Z" fill="url(#bm)"/><path d="M952.532,828.5l5.774,2.506a1.752,1.752,0,0,1-1.394,3.214l-.011,0-5.755-2.5a1.749,1.749,0,1,1,1.386-3.212Z" fill="url(#bm)"/><path d="M971.73,836.97l5.731,2.6a1.763,1.763,0,0,1-1.457,3.21l-.01,0-5.713-2.6a1.76,1.76,0,1,1,1.449-3.207Z" fill="url(#bm)"/><path d="M990.785,845.749l5.69,2.692a1.773,1.773,0,1,1-1.517,3.206l-.009,0-5.672-2.69a1.771,1.771,0,1,1,1.508-3.2Z" fill="url(#bm)"/><path d="M1009.7,854.818l5.649,2.773a1.784,1.784,0,0,1-1.572,3.2l-.009,0-5.633-2.772a1.781,1.781,0,1,1,1.565-3.2Z" fill="url(#bm)"/><path d="M1028.489,864.15,1034.1,867a1.795,1.795,0,1,1-1.624,3.2l-.008,0-5.6-2.847a1.792,1.792,0,1,1,1.617-3.2Z" fill="url(#bm)"/><path d="M1047.152,873.725l5.575,2.916a1.806,1.806,0,0,1-1.673,3.2l-.008,0-5.561-2.916a1.8,1.8,0,1,1,1.667-3.2Z" fill="url(#bm)"/><path d="M1065.7,883.517l5.543,2.977a1.817,1.817,0,0,1-1.719,3.2l-.007,0-5.53-2.977a1.813,1.813,0,1,1,1.713-3.2Z" fill="url(#bm)"/><path d="M1084.137,893.506l5.513,3.032a1.827,1.827,0,0,1-1.761,3.2l-.006,0-5.5-3.032a1.824,1.824,0,1,1,1.754-3.2Z" fill="url(#bm)"/><path d="M1102.48,903.668l5.485,3.08a1.837,1.837,0,1,1-1.8,3.2l-.006,0-5.474-3.08a1.835,1.835,0,1,1,1.794-3.2Z" fill="url(#bm)"/><path d="M1120.735,913.982l5.46,3.121a1.848,1.848,0,1,1-1.833,3.21l-.005,0-5.452-3.123a1.845,1.845,0,1,1,1.83-3.205Z" fill="url(#bm)"/><path d="M1138.913,924.426l5.44,3.156a1.859,1.859,0,1,1-1.865,3.216l-.005,0-5.431-3.158a1.856,1.856,0,1,1,1.861-3.212Z" fill="url(#bm)"/><path d="M1157.026,934.979l5.423,3.184a1.87,1.87,0,0,1-1.893,3.225l0,0-5.415-3.187a1.867,1.867,0,1,1,1.889-3.22Z" fill="url(#bm)"/><path d="M1175.085,945.62l5.41,3.206a1.88,1.88,0,1,1-1.918,3.235l0,0-5.4-3.209a1.877,1.877,0,1,1,1.914-3.23Z" fill="url(#bm)"/><path d="M1193.1,956.327l5.4,3.221a1.891,1.891,0,0,1-1.938,3.248h0l-5.393-3.226a1.888,1.888,0,0,1,1.935-3.242Z" fill="url(#bm)"/><path d="M1211.091,967.073l5.394,3.227a1.9,1.9,0,0,1-1.953,3.264h0l-5.39-3.232a1.9,1.9,0,0,1,1.951-3.258Z" fill="url(#bm)"/><path d="M1229.069,977.829l5.394,3.225a1.913,1.913,0,1,1-1.962,3.284l0,0-5.391-3.231a1.909,1.909,0,0,1,1.961-3.276Z" fill="url(#bm)"/><path d="M1247.053,988.572l5.4,3.217a1.923,1.923,0,0,1-1.967,3.306l0,0-5.4-3.224a1.92,1.92,0,0,1,1.969-3.3Z" fill="url(#bm)"/><path d="M1265.055,999.281l5.406,3.2a1.934,1.934,0,0,1-1.968,3.33l0,0-5.406-3.21a1.931,1.931,0,0,1,1.972-3.32Z" fill="url(#bm)"/><path d="M1283.088,1009.932l5.418,3.181a1.945,1.945,0,1,1-1.965,3.357l0,0-5.419-3.19a1.941,1.941,0,1,1,1.97-3.346Z" fill="url(#bm)"/><path d="M1301.165,1020.505l5.433,3.153a1.955,1.955,0,1,1-1.957,3.385l0,0-5.436-3.162a1.952,1.952,0,1,1,1.964-3.374Z" fill="url(#bm)"/><path d="M1319.3,1030.976l5.453,3.118a1.966,1.966,0,1,1-1.945,3.417l-.005,0-5.457-3.128a1.962,1.962,0,1,1,1.954-3.4Z" fill="url(#bm)"/><path d="M1337.5,1041.323l5.476,3.077a1.976,1.976,0,0,1-1.928,3.451l-.006,0-5.481-3.086a1.974,1.974,0,1,1,1.939-3.438Z" fill="url(#bm)"/><path d="M1355.78,1051.524l5.5,3.028a1.988,1.988,0,0,1-1.907,3.488l-.007,0L1353.86,1055a1.984,1.984,0,1,1,1.92-3.473Z" fill="url(#bm)"/><path d="M1374.152,1061.556l5.531,2.973a2,2,0,0,1-1.882,3.526l-.007,0-5.539-2.985a1.995,1.995,0,1,1,1.9-3.51Z" fill="url(#bm)"/><path d="M1392.624,1071.4l5.563,2.911a2.009,2.009,0,0,1-1.85,3.567l-.008-.005-5.573-2.923a2.006,2.006,0,1,1,1.868-3.55Z" fill="url(#bm)"/><path d="M1411.207,1081.02l5.6,2.841a2.02,2.02,0,0,1-1.814,3.609l-.009-.005-5.609-2.854a2.016,2.016,0,1,1,1.835-3.591Z" fill="url(#bm)"/><path d="M1429.908,1090.405l5.635,2.765a2.03,2.03,0,1,1-1.773,3.653l-.01-.005-5.647-2.778a2.027,2.027,0,1,1,1.795-3.635Z" fill="url(#bm)"/><path d="M1448.736,1099.527l5.675,2.682a2.041,2.041,0,1,1-1.728,3.7l-.01,0-5.688-2.7a2.038,2.038,0,1,1,1.751-3.68Z" fill="url(#bm)"/><path d="M1467.7,1108.363l5.716,2.591a2.052,2.052,0,0,1-1.676,3.746l-.011-.006-5.732-2.6a2.048,2.048,0,1,1,1.7-3.726Z" fill="url(#bm)"/><path d="M1486.8,1116.888l5.758,2.493.01,0a2.062,2.062,0,1,1-1.639,3.785h0l-5.775-2.508a2.059,2.059,0,1,1,1.64-3.777Z" fill="url(#bm)"/><path d="M1506.043,1125.078l5.8,2.388.011,0a2.073,2.073,0,1,1-1.578,3.834h0l-5.821-2.4a2.07,2.07,0,1,1,1.579-3.826Z" fill="url(#bm)"/><path d="M1525.433,1132.909l5.846,2.275.012.005a2.084,2.084,0,1,1-1.512,3.883h0l-5.866-2.29a2.08,2.08,0,1,1,1.513-3.876Z" fill="url(#bm)"/><path d="M1544.972,1140.357l5.89,2.156.012.005a2.094,2.094,0,1,1-1.44,3.933h0l-5.912-2.171a2.091,2.091,0,0,1,1.441-3.926Z" fill="url(#bm)"/><path d="M1564.657,1147.4l5.935,2.03.013,0a2.1,2.1,0,1,1-1.363,3.983h0l-5.958-2.045a2.1,2.1,0,1,1,1.364-3.976Z" fill="url(#bm)"/><path d="M1584.489,1154.014l5.978,1.9.013,0a2.116,2.116,0,1,1-1.28,4.034h0l-6-1.912a2.113,2.113,0,1,1,1.283-4.026Z" fill="url(#bm)"/><path d="M1604.463,1160.178l6.02,1.759.014,0a2.126,2.126,0,1,1-1.193,4.082h0l-6.046-1.773a2.123,2.123,0,1,1,1.2-4.074Z" fill="url(#bm)"/><path d="M1624.573,1165.869l6.059,1.6.018.005a2.137,2.137,0,1,1-1.093,4.132h0l-6.093-1.617a2.134,2.134,0,0,1,1.095-4.125Z" fill="url(#bm)"/><path d="M1644.822,1171l6.1,1.428.018,0a2.148,2.148,0,0,1-.979,4.183h0l-6.136-1.442a2.144,2.144,0,1,1,.981-4.175Z" fill="url(#bm)"/><path d="M1665.209,1175.561l6.141,1.254.018,0a2.159,2.159,0,0,1-.864,4.23h0l-6.176-1.268a2.155,2.155,0,0,1,.867-4.222Z" fill="url(#bm)"/><path d="M1685.717,1179.539l6.174,1.08.018,0a2.169,2.169,0,0,1-.747,4.273h0l-6.209-1.093a2.166,2.166,0,1,1,.75-4.266Z" fill="url(#bm)"/><path d="M1706.33,1182.933l6.2.9.018,0a2.18,2.18,0,0,1-.628,4.314h0l-6.238-.916a2.176,2.176,0,1,1,.632-4.306Z" fill="url(#bm)"/><path d="M1727.031,1185.737l6.224.725.019,0a2.191,2.191,0,0,1-.506,4.352h0l-6.262-.735a2.187,2.187,0,0,1,.511-4.345Z" fill="url(#bm)"/><path d="M1747.8,1187.941l6.243.543.02,0a2.2,2.2,0,1,1-.381,4.385h0l-6.281-.552a2.2,2.2,0,1,1,.385-4.379Z" fill="url(#bm)"/><path d="M1768.629,1189.532l6.256.356h.02a2.212,2.212,0,1,1-.251,4.417h0l-6.3-.364a2.209,2.209,0,0,1,.255-4.41Z" fill="url(#bm)"/><path d="M1789.492,1190.494l6.263.163h.021a2.223,2.223,0,0,1-.115,4.444h0l-6.305-.171a2.219,2.219,0,0,1,.12-4.437Z" fill="url(#bm)"/><path d="M1810.373,1190.807l6.265-.036h.021a2.234,2.234,0,0,1,.026,4.467h0l-6.308.029a2.23,2.23,0,0,1-.021-4.46Z" fill="url(#bm)"/><path d="M1831.251,1190.448l6.259-.243h.022a2.244,2.244,0,1,1,.174,4.485h0l-6.3.238a2.241,2.241,0,1,1-.169-4.478Z" fill="url(#bm)"/><path d="M1852.1,1189.39l6.246-.457.024,0a2.254,2.254,0,1,1,.329,4.5h0l-6.294.455a2.251,2.251,0,0,1-.324-4.491Z" fill="url(#bm)"/><path d="M1872.9,1187.606l6.223-.682.025,0a2.265,2.265,0,1,1,.494,4.5h0l-6.275.681a2.262,2.262,0,1,1-.488-4.5Z" fill="url(#bm)"/><path d="M1893.612,1185.06l6.192-.917.026,0a2.276,2.276,0,0,1,.667,4.5h0l-6.246.918a2.273,2.273,0,0,1-.661-4.5Z" fill="url(#bm)"/><path d="M1914.206,1181.718l6.149-1.164.027-.005a2.286,2.286,0,1,1,.851,4.493h0l-6.2,1.168a2.283,2.283,0,1,1-.845-4.488Z" fill="url(#bm)"/><path d="M1934.641,1177.539l6.092-1.423.029-.006a2.3,2.3,0,1,1,1.045,4.473h0l-6.152,1.431a2.294,2.294,0,0,1-1.039-4.469Z" fill="url(#bm)"/><path d="M1954.869,1172.481l6.02-1.695.031-.009a2.308,2.308,0,0,1,1.251,4.443h0l-6.083,1.707a2.305,2.305,0,1,1-1.245-4.439Z" fill="url(#bm)"/><path d="M1974.836,1166.5l5.929-1.981.033-.01a2.319,2.319,0,1,1,1.47,4.4h0l-6,2a2.315,2.315,0,1,1-1.462-4.394Z" fill="url(#bm)"/><path d="M1994.478,1159.551l5.819-2.28.034-.013a2.329,2.329,0,1,1,1.7,4.337h0l-5.89,2.3a2.326,2.326,0,0,1-1.693-4.334Z" fill="url(#bm)"/><path d="M2013.723,1151.59l5.683-2.592.036-.017a2.34,2.34,0,0,1,1.942,4.259h0l-5.758,2.619a2.337,2.337,0,0,1-1.935-4.254Z" fill="url(#bm)"/><path d="M2032.487,1142.575l5.522-2.915.037-.02a2.351,2.351,0,0,1,2.195,4.158h0l-5.6,2.949a2.348,2.348,0,0,1-2.188-4.155Z" fill="url(#bm)"/><path d="M2050.677,1132.472l5.33-3.247.038-.023a2.361,2.361,0,1,1,2.457,4.033l0,0-5.41,3.288a2.358,2.358,0,1,1-2.449-4.031Z" fill="url(#bm)"/><path d="M2068.191,1121.256l5.107-3.584.039-.027a2.372,2.372,0,1,1,2.725,3.883h0l-5.187,3.634a2.369,2.369,0,1,1-2.718-3.881Z" fill="url(#bm)"/><path d="M2084.924,1108.917l4.855-3.919.037-.03a2.383,2.383,0,0,1,2.994,3.708h0l-4.934,3.975a2.38,2.38,0,0,1-2.985-3.707Z" fill="url(#bm)"/><path d="M2100.787,1095.48l4.579-4.237.035-.033a2.394,2.394,0,0,1,3.252,3.513l0,0-4.654,4.3a2.39,2.39,0,0,1-3.243-3.512Z" fill="url(#bm)"/><path d="M2115.705,1081l4.281-4.537.033-.035a2.4,2.4,0,0,1,3.5,3.3l0,0-4.352,4.6a2.4,2.4,0,1,1-3.489-3.3Z" fill="url(#bm)"/><path d="M2129.614,1065.55l3.968-4.813.03-.037a2.415,2.415,0,1,1,3.727,3.072l0,0-4.034,4.883a2.411,2.411,0,1,1-3.718-3.071Z" fill="url(#bm)"/><path d="M2142.463,1049.2l3.643-5.064.028-.039a2.426,2.426,0,1,1,3.938,2.833l0,0-3.7,5.138a2.422,2.422,0,1,1-3.93-2.833Z" fill="url(#bm)"/><path d="M2154.218,1032.054l3.31-5.29.024-.039a2.436,2.436,0,0,1,4.131,2.584v0l-3.365,5.365a2.433,2.433,0,1,1-4.122-2.585Z" fill="url(#bm)"/><path d="M2164.857,1014.184l2.972-5.487.022-.04a2.447,2.447,0,0,1,4.3,2.331v0l-3.021,5.564a2.444,2.444,0,1,1-4.3-2.332Z" fill="url(#bm)"/><path d="M2174.37,995.686l2.634-5.658.019-.04a2.458,2.458,0,1,1,4.456,2.074v0L2178.8,997.8a2.455,2.455,0,0,1-4.449-2.076Z" fill="url(#bm)"/><path d="M2182.757,976.647l2.3-5.8.015-.04a2.469,2.469,0,1,1,4.591,1.817v0l-2.335,5.882a2.465,2.465,0,0,1-4.583-1.819Z" fill="url(#bm)"/><path d="M2190.026,957.148l1.964-5.928.013-.039a2.479,2.479,0,1,1,4.707,1.559v0l-2,6a2.475,2.475,0,0,1-4.7-1.562Z" fill="url(#bm)"/><path d="M2196.188,937.267l1.636-6.028.01-.039a2.49,2.49,0,1,1,4.806,1.3v0l-1.662,6.1a2.486,2.486,0,1,1-4.8-1.306Z" fill="url(#bm)"/><path d="M2201.26,917.076l1.311-6.107.008-.038a2.5,2.5,0,1,1,4.889,1.049v0l-1.334,6.183a2.5,2.5,0,0,1-4.882-1.053Z" fill="url(#bm)"/><path d="M2205.255,896.643l.991-6.168.006-.039a2.511,2.511,0,0,1,4.959.8v0l-1.01,6.244a2.508,2.508,0,1,1-4.951-.8Z" fill="url(#bm)"/><path d="M2208.194,876.027l.683-6.212,0-.036a2.522,2.522,0,1,1,5.013.551v0l-.7,6.284a2.518,2.518,0,1,1-5.006-.557Z" fill="url(#bm)"/><path d="M2210.119,855.288l.382-6.238,0-.036a2.533,2.533,0,1,1,5.056.309v0l-.393,6.31a2.529,2.529,0,1,1-5.048-.315Z" fill="url(#bm)"/><path d="M2211.043,834.479l.084-6.249v-.036a2.543,2.543,0,1,1,5.086.068v0l-.091,6.321a2.54,2.54,0,0,1-5.079-.073Z" fill="url(#bm)"/><path d="M2210.977,813.649l-.211-6.247v-.035a2.554,2.554,0,0,1,5.105-.173v0l.207,6.318a2.551,2.551,0,1,1-5.1.167Z" fill="url(#bm)"/><path d="M2209.935,792.843l-.5-6.23,0-.035a2.565,2.565,0,0,1,5.113-.411v0l.5,6.3a2.561,2.561,0,0,1-5.107.4Z" fill="url(#bm)"/><path d="M2207.933,772.106l-.785-6.2,0-.034a2.575,2.575,0,1,1,5.109-.647v0l.787,6.272a2.572,2.572,0,0,1-5.1.641Z" fill="url(#bm)"/><path d="M2204.991,751.48l-1.063-6.16-.006-.033a2.586,2.586,0,1,1,5.1-.88v0l1.068,6.229a2.583,2.583,0,1,1-5.091.873Z" fill="url(#bm)"/><path d="M2201.129,731.005l-1.335-6.107-.007-.033a2.6,2.6,0,1,1,5.073-1.109v0l1.343,6.175a2.594,2.594,0,1,1-5.069,1.1Z" fill="url(#bm)"/><path d="M2196.37,710.719l-1.6-6.044-.009-.033a2.607,2.607,0,0,1,5.041-1.334v0l1.61,6.111a2.6,2.6,0,0,1-5.037,1.327Z" fill="url(#bm)"/><path d="M2190.737,690.656l-1.857-5.971-.01-.032a2.618,2.618,0,0,1,5-1.555v0l1.87,6.036a2.615,2.615,0,0,1-4.995,1.548Z" fill="url(#bm)"/><path d="M2184.254,670.849l-2.107-5.888-.011-.031a2.629,2.629,0,0,1,4.95-1.771v0l2.123,5.951a2.626,2.626,0,0,1-4.946,1.764Z" fill="url(#bm)"/><path d="M2176.946,651.33l-2.349-5.8-.012-.03a2.64,2.64,0,0,1,4.892-1.984v0l2.368,5.858a2.636,2.636,0,0,1-4.888,1.975Z" fill="url(#bm)"/><path d="M2168.839,632.128l-2.584-5.7-.014-.029a2.65,2.65,0,0,1,4.827-2.19v0l2.6,5.756a2.647,2.647,0,0,1-4.823,2.183Z" fill="url(#bm)"/><path d="M2159.957,613.27l-2.811-5.586-.015-.029a2.66,2.66,0,1,1,4.753-2.392l0,0,2.834,5.646a2.658,2.658,0,1,1-4.75,2.385Z" fill="url(#bm)"/><path d="M2150.327,594.782l-3.031-5.469-.015-.028a2.671,2.671,0,1,1,4.673-2.589v0l3.056,5.527a2.668,2.668,0,1,1-4.67,2.581Z" fill="url(#bm)"/><path d="M2139.974,576.689l-3.243-5.346-.017-.027a2.682,2.682,0,0,1,4.587-2.782l0,0,3.269,5.4a2.679,2.679,0,1,1-4.584,2.774Z" fill="url(#bm)"/><path d="M2128.923,559.015l-3.447-5.219-.017-.025a2.693,2.693,0,1,1,4.493-2.969l0,0,3.476,5.274a2.689,2.689,0,1,1-4.491,2.96Z" fill="url(#bm)"/><path d="M2117.2,541.776l-3.644-5.084-.018-.025a2.7,2.7,0,1,1,4.394-3.15l0,0,3.675,5.137a2.7,2.7,0,1,1-4.392,3.142Z" fill="url(#bm)"/><path d="M2104.83,524.993,2101,520.05l-.019-.024a2.714,2.714,0,0,1,4.29-3.327l0,0,3.865,4.995a2.711,2.711,0,1,1-4.287,3.319Z" fill="url(#bm)"/><path d="M2091.837,508.685l-4.015-4.8-.019-.023a2.725,2.725,0,0,1,4.179-3.5l0,0,4.048,4.846a2.722,2.722,0,1,1-4.177,3.49Z" fill="url(#bm)"/><path d="M2078.249,492.868l-4.187-4.647-.019-.022a2.736,2.736,0,1,1,4.065-3.662l0,0,4.221,4.7a2.732,2.732,0,1,1-4.064,3.653Z" fill="url(#bm)"/><path d="M2064.1,477.55l-4.35-4.5-.019-.02a2.746,2.746,0,1,1,3.948-3.818l0,0,4.384,4.543a2.743,2.743,0,1,1-3.948,3.809Z" fill="url(#bm)"/><path d="M2049.423,462.733l-4.5-4.347-.02-.019a2.757,2.757,0,0,1,3.83-3.966l0,0,4.537,4.39a2.754,2.754,0,0,1-3.83,3.958Z" fill="url(#bm)"/><path d="M2034.25,448.42l-4.643-4.2-.021-.018a2.768,2.768,0,1,1,3.711-4.107h0l4.68,4.237a2.764,2.764,0,0,1-3.71,4.1Z" fill="url(#bm)"/><path d="M2018.613,434.613l-4.778-4.043-.02-.017a2.779,2.779,0,0,1,3.59-4.242l0,0,4.814,4.083a2.775,2.775,0,1,1-3.59,4.232Z" fill="url(#bm)"/><path d="M2002.539,421.313l-4.9-3.891-.021-.016a2.789,2.789,0,1,1,3.468-4.37l0,0,4.94,3.929a2.786,2.786,0,0,1-3.468,4.361Z" fill="url(#bm)"/><path d="M1986.055,408.521l-5.021-3.739-.02-.015a2.8,2.8,0,1,1,3.344-4.491h0l5.058,3.774a2.8,2.8,0,1,1-3.345,4.483Z" fill="url(#bm)"/><path d="M1969.187,396.237l-5.132-3.585-.021-.015a2.81,2.81,0,1,1,3.219-4.607h0l5.169,3.62a2.807,2.807,0,1,1-3.22,4.6Z" fill="url(#bm)"/><path d="M1951.957,384.463l-5.236-3.433-.021-.013a2.821,2.821,0,0,1,3.094-4.719l0,0,5.274,3.465a2.818,2.818,0,1,1-3.095,4.71Z" fill="url(#bm)"/><path d="M1934.388,373.2l-5.334-3.279-.021-.013a2.832,2.832,0,0,1,2.967-4.825l0,0,5.372,3.311a2.828,2.828,0,1,1-2.968,4.815Z" fill="url(#bm)"/><path d="M1916.5,362.446l-5.426-3.126-.02-.012a2.843,2.843,0,0,1,2.838-4.926h0l5.464,3.156a2.84,2.84,0,0,1-2.84,4.918Z" fill="url(#bm)"/><path d="M1898.313,352.2l-5.51-2.972-.021-.011a2.853,2.853,0,1,1,2.709-5.022h0l5.549,3a2.85,2.85,0,0,1-2.71,5.014Z" fill="url(#bm)"/><path d="M1879.847,342.478l-5.591-2.817-.021-.011a2.864,2.864,0,1,1,2.578-5.115l0,0,5.631,2.844a2.861,2.861,0,0,1-2.58,5.107Z" fill="url(#bm)"/><path d="M1861.118,333.266l-5.667-2.662-.021-.01a2.874,2.874,0,1,1,2.444-5.2h0l5.707,2.688a2.871,2.871,0,1,1-2.447,5.2Z" fill="url(#bm)"/><path d="M1842.144,324.573l-5.738-2.507-.022-.009a2.885,2.885,0,0,1,2.311-5.288h0l5.778,2.531a2.882,2.882,0,0,1-2.313,5.28Z" fill="url(#bm)"/><path d="M846.744,1213.995h-357.5c-21.26,0-38.376,14.9-38.376,32.667v279.357H871.7c7.476,0,13.242-5.4,13.242-12.874V1246.662C884.944,1228.9,868,1213.995,846.744,1213.995Z" fill="url(#gq)"/><path d="M781.661,1213.995h-357.5c-21.26,0-38.034,14.9-38.034,32.667v266.483c0,7.476,5.6,12.874,13.076,12.874H806.668a13.313,13.313,0,0,0,13.537-13.271V1246.662C820.205,1228.9,802.921,1213.995,781.661,1213.995Z" fill="url(#gr)"/><path d="M1746.463,886.669a3.366,3.366,0,0,1,.089-.881c4.39-17.405,22.341-26.327,22.341-26.327l8.635.677c4.965,15.341,8.166,22.83,7.368,27.021-.022.117-.058.229-.089.343A204.935,204.935,0,0,1,1746.463,886.669Z" fill="url(#gs)"/><path d="M1784.807,887.5a3.743,3.743,0,0,1-2.74,2.767c-10.132,2.13-26.236.415-33-.468a3.142,3.142,0,0,1-2.606-3.132A204.935,204.935,0,0,0,1784.807,887.5Z" fill="url(#gt)"/><path d="M1761.784,846.024l3.78,18.2a2.977,2.977,0,0,0,2.543,2.449,25.238,25.238,0,0,0,5.857-.094,3.742,3.742,0,0,0,2.963-4.395l-2.628-16.16Z" fill="url(#gu)"/><path d="M1858.174,887.351c-9.222-.258-13.992-1.345-16.458-2.352-.006.917,0,1.85.029,2.817a1.821,1.821,0,0,0,1.738,1.851l50.634-.327a2.311,2.311,0,0,0,1.859-3.366C1889.338,886.523,1872.429,887.75,1858.174,887.351Z" fill="url(#gv)"/><path d="M1895.976,885.974a2.278,2.278,0,0,0-.2-.382c-4.471-6.248-15.86-18.69-38.366-24.086l-10.8-.341s-4.807,8.356-4.9,23.834c2.466,1.007,7.236,2.094,16.458,2.352,8.867.248,26.884-.607,26.884-.607S1893.467,886.182,1895.976,885.974Z" fill="url(#gw)"/><path d="M1844.612,844.8c.12.8,1.6,13.036,2.173,17.778a2.349,2.349,0,0,0,1.981,2.122,24.7,24.7,0,0,0,7.416-.114,3.193,3.193,0,0,0,2.42-3.205v-19.2Z" fill="url(#gx)"/><path d="M1769,607.039s-17.276,153.565-7.679,249.543c0,0,11.518,0,17.277-1.92,0,0,17.952-150.147,23.759-193.112a1.445,1.445,0,0,1,2.849-.09c7.166,36.147,35.31,177.9,38.657,191.283,0,0,9.6,3.839,17.276,0,0,0-15.357-205.394-26.874-241.865Z" fill="url(#gy)"/><path d="M1734.446,428.519s72.943-11.517,130.53,3.839l-3.839,59.507s-15.357,82.541-26.874,119.013c0,0-44.15,7.678-65.265-3.839,0,0-17.276-103.657-26.874-119.013C1742.124,488.026,1732.526,447.715,1734.446,428.519Z" fill="url(#gz)"/><path d="M1785.119,376.068l-7.267,49.141s20.3,9.326,34.517-.4l-3.06-34.68Z" fill="url(#ha)"/><path d="M1777.267,352.147c-.229.415-4.608,25.2-7.3,40.534a10.761,10.761,0,0,0,9.969,12.605l5.882.348a20.965,20.965,0,0,0,21.963-17.757l4.253-27.785S1782.823,342.07,1777.267,352.147Z" fill="url(#hb)"/><path d="M1818.371,360.16c2.255-2.8,4.222-7.339-.581-12.107-4.862-4.828-10.378-3.625-13.877-2.006a3.87,3.87,0,0,1-4.56-.9,2.464,2.464,0,0,0-2.3-.852,3.62,3.62,0,0,1-4.092-3.147c-.414-3.485-2.27-7.588-8.431-8.778-11.3-2.185-16.938,9.125-16.736,17.073s12.587,9.62,19.615,8.3c5.161-.97,9.625,3.567,11.63,6.043a3.736,3.736,0,0,1,.738,3.2L1798,374.666a35.4,35.4,0,0,0,4.19,6.861,7.575,7.575,0,0,0,4.078,2.619c2.107-3.922,8-4.587,10.738-4.675a3.745,3.745,0,0,0,2.715-1.285c2.066-2.37,5.3-7.656-.89-12.847A3.733,3.733,0,0,1,1818.371,360.16Z" fill="url(#hc)"/><path d="M1804.227,392.367s.243-13.866,5.855-15.168,11.666,2.755,6.866,11.056C1810.978,398.581,1804.227,392.367,1804.227,392.367Z" fill="url(#hd)"/><path d="M1767.279,494.8s-164.821-44.864-82.981-160.243l5.537,7.84s-24.657,78.147,57.024,85.573C1746.859,427.971,1768.014,482.532,1767.279,494.8Z" fill="url(#he)"/><path d="M1683.742,335.152s-1.857-22.277,9.282-24.133,14.851,9.282,16.707,14.851-16.707,16.707-20.42,16.707S1683.742,335.152,1683.742,335.152Z" fill="url(#hf)"/><path d="M1826.738,500.37s164.821-44.864,82.981-160.242l-5.537,7.839s24.657,78.148-57.024,85.573C1847.158,433.54,1826,488.1,1826.738,500.37Z" fill="url(#hg)"/><path d="M1910.275,340.721s1.857-22.277-9.282-24.133-14.851,9.282-16.707,14.851,16.707,16.707,20.42,16.707S1910.275,340.721,1910.275,340.721Z" fill="url(#hh)"/><path d="M1696.389,376.612l-18.505-4.317-9.128-92.355,82.006,13.952Z" fill="url(#hi)"/><path d="M1656.624,109.478c-1.777,7.2-34.764,148.608,31.662,188.318s126.763-72.372,144.068-158.182Z" fill="url(#hj)"/><rect width="117.844" height="14.308" transform="translate(1626.727 374.048) rotate(13.131)" fill="url(#hk)"/><path d="M1741.489,400.821l-114.762-26.772,32.679-8.806,56.674,13.221Z" fill="url(#hl)"/><path d="M1652.986,87.473c-6.391-1.086-12.634,2.376-13.875,7.694l-2.537,10.877c-1.241,5.318,2.967,10.6,9.35,11.726l199.2,35.31c6.384,1.132,12.622-2.294,13.863-7.612l2.9-12.423c1.24-5.318-2.973-10.558-9.363-11.645Z" fill="url(#hm)"/><path d="M1736.5,320.894c-4.584-1.07-7.864-4.89-7.481-8.942.412-4.355,4.9-7.33,10.03-6.645.977.127,68.622,8.557,83.31-26.117,2.477-5.846,4.217-13.832-1.56-18.682-4.767-4-13.823-5.2-21.062-2.776-4.116,1.376-8.96,4.339-8.663,10.637.208,4.409-3.792,7.854-8.935,7.7s-9.479-3.862-9.687-8.27c-.538-11.419,6.709-20.768,19.387-25.007,14.085-4.712,31.138-1.942,41.473,6.734,6.04,5.071,14.933,16.506,6.626,36.113-8.213,19.387-28.859,31.635-59.705,35.421a186.106,186.106,0,0,1-42.67.033C1737.2,321.04,1736.845,320.974,1736.5,320.894Z" fill="url(#hn)"/><path d="M1668.026,304.92c4.585,1.07,9.217-.9,10.666-4.708,1.558-4.088-1.152-8.743-6.054-10.4-.932-.319-65.325-22.691-63.154-60.285.365-6.339,2.34-14.27,9.665-16.063,6.047-1.481,14.7,1.456,20.117,6.83,3.082,3.055,6.115,7.855,3.062,13.372-2.137,3.862-.075,8.722,4.608,10.855s10.209.731,12.346-3.131c5.536-10,3.173-21.592-6.32-31-10.546-10.457-27.065-15.519-40.171-12.312-7.661,1.875-20.7,8.194-21.923,29.453-1.213,21.02,11.882,41.14,37.869,58.184a186.161,186.161,0,0,0,38.251,18.911C1667.333,304.741,1667.68,304.839,1668.026,304.92Z" fill="url(#ho)"/><path d="M1811.744,132.958a1.54,1.54,0,0,1-.277-.024l-17.79-3.154a1.578,1.578,0,1,1,.552-3.107l17.789,3.154a1.578,1.578,0,0,1-.274,3.131Z" fill="#fff" style="mix-blend-mode:soft-light;isolation:isolate"/><path d="M1764.151,124.522a1.439,1.439,0,0,1-.276-.025L1657.6,105.658a1.578,1.578,0,1,1,.55-3.107l106.279,18.84a1.578,1.578,0,0,1-.274,3.131Z" fill="#fff" style="mix-blend-mode:soft-light;isolation:isolate"/><path d="M1701.946,284.081a1.577,1.577,0,0,1-.532-.092c-18.513-6.626-30.106-25.658-34.457-56.571-3.592-25.518-1.474-53.9.935-73.222a1.578,1.578,0,1,1,3.131.391c-4.134,33.15-9.344,111.828,31.455,126.431a1.578,1.578,0,0,1-.532,3.063Z" fill="#fff" style="mix-blend-mode:soft-light;isolation:isolate"/><path d="M1671.641,140.886a1.434,1.434,0,0,1-.26-.022,1.576,1.576,0,0,1-1.3-1.815c.726-4.38,1.229-6.88,1.251-6.984a1.577,1.577,0,1,1,3.092.625c0,.025-.514,2.557-1.231,6.877A1.577,1.577,0,0,1,1671.641,140.886Z" fill="#fff" style="mix-blend-mode:soft-light;isolation:isolate"/><path d="M1669.011,341.782s14.752-6.533,12.856,4.426,2.065,18.967-6.344,19.81S1666.156,349.356,1669.011,341.782Z" fill="url(#hp)"/><path d="M1774.914,424.365a7.788,7.788,0,0,0-6.4-4.824c-3.414-.5-9.619.15-9.375,4.8.724,13.764,5.135,48.567,30.773,66.317l5.195-5.208c-3.544-7.2-6.624-14.648-9.729-22.054-2.69-6.417-4.486-13.157-6.739-19.733a49.124,49.124,0,0,1-2.581-9.829c-.365-2.931-.009-6.148-.965-8.976Q1775.012,424.605,1774.914,424.365Z" fill="url(#hq)"/><path d="M1819.4,424.365a7.789,7.789,0,0,1,6.4-4.824c3.414-.5,9.619.15,9.375,4.8-.724,13.764-5.135,48.567-30.773,66.317l-5.2-5.208c3.545-7.2,6.625-14.648,9.73-22.054,2.69-6.417,4.486-13.157,6.739-19.733a49.124,49.124,0,0,0,2.581-9.829c.365-2.931.009-6.148.965-8.976C1819.273,424.689,1819.333,424.525,1819.4,424.365Z" fill="url(#hr)"/><circle cx="22.689" cy="22.689" r="22.689" transform="translate(1773.639 475.174) rotate(-7.031)" fill="url(#hs)"/><circle cx="16.679" cy="16.679" r="16.679" transform="translate(1781.913 479.414) rotate(-2.613)" fill="#fff" opacity="0.2"/><path d="M1779.851,497.4a.53.53,0,0,1-.528-.486,23.539,23.539,0,0,1,.758-8.676.531.531,0,1,1,1.018.3,22.488,22.488,0,0,0-.719,8.285.531.531,0,0,1-.484.574Z" fill="#fff" opacity="0.2"/><path d="M1782.334,484.888a.531.531,0,0,1-.456-.8c4.676-7.907,13.729-9.515,14.112-9.58a.531.531,0,0,1,.177,1.047c-.09.015-8.956,1.6-13.376,9.073A.529.529,0,0,1,1782.334,484.888Z" fill="#fff" opacity="0.2"/><path d="M1679.218,206.289c-5.945-28.408-1.389-45.959-1.192-46.692l.487-1.814,2.208-.86a97.7,97.7,0,0,1,103.3,21.381q.558.548,1.1,1.1l1.319,1.335-.293,1.853c-.117.741-3.061,18.421-19.786,41.749l-6.035-4.327c12.648-17.641,16.919-31.92,18.1-36.792a90.27,90.27,0,0,0-93.6-19.9c-.91,4.959-2.842,19.928,1.662,41.454Z" fill="#fff"/><path d="M1700.6,212.033l-1.141-.106q-.18,2-.361,4.007l1.067.1c1.782.172,2.749-.436,2.914-1.92C1703.212,212.891,1702.385,212.206,1700.6,212.033Z" fill="#fff"/><path d="M1684.558,213.9a1.46,1.46,0,0,0,.634-1.261c.021-1-.793-1.514-2.443-1.528q-.82-.006-1.642-.005,0,1.6,0,3.195c.574,0,1.147,0,1.721.006A3.018,3.018,0,0,0,1684.558,213.9Z" fill="#fff"/><path d="M1720.665,219.008q-.086-1.014-.187-2.619c-.069-1.069-.107-1.832-.107-2.29-.158.392-.444,1.033-.853,1.925-.371.81-1.115,2.321-2.2,4.549a.565.565,0,0,0,.014.524.633.633,0,0,0,.448.31q1.154.219,2.3.452a.63.63,0,0,0,.531-.118.567.567,0,0,0,.211-.48Q1720.748,220.134,1720.665,219.008Z" fill="#fff"/><path d="M1684.793,218.289a2.988,2.988,0,0,0-1.836-.547q-.922-.008-1.846-.008,0,1.835,0,3.669.955,0,1.912.008c1.555.016,2.345-.534,2.373-1.806A1.485,1.485,0,0,0,1684.793,218.289Z" fill="#fff"/><path d="M1759.649,227.005q-.774-.326-1.552-.644l-3.859,9.417q.582.238,1.16.48a4.2,4.2,0,0,0,3.587.114,6.178,6.178,0,0,0,2.58-3.176,5.456,5.456,0,0,0,.536-3.791A4.01,4.01,0,0,0,1759.649,227.005Z" fill="#fff"/><path d="M1779.9,227.436a2.4,2.4,0,0,0-1.251-1.37,254.218,254.218,0,0,0-111.458-23.7,2.411,2.411,0,0,0-2.371,2.473l.576,22.036a2.408,2.408,0,0,0,2.447,2.346,227.353,227.353,0,0,1,99.283,21.113,2.411,2.411,0,0,0,3.19-1.148l9.492-19.9A2.408,2.408,0,0,0,1779.9,227.436Zm-91.386-3.448a8.557,8.557,0,0,1-5.088,1.214q-3.216-.036-6.438.036c-.336.007-.669-.135-.678-.466q-.218-8.334-.435-16.669c-.009-.332.348-.485.715-.493q3.123-.07,6.241-.046c2.689.021,4.667.384,5.935,1.151a3.458,3.458,0,0,1,1.779,3.382,4.106,4.106,0,0,1-.958,2.528,3.525,3.525,0,0,1-1.985,1.292c-.073.016-.049.107-.064.174h0a3.992,3.992,0,0,1,2.425,1.519,4.161,4.161,0,0,1,.66,2.672A4.579,4.579,0,0,1,1688.512,223.988Zm19.729,2.882a.56.56,0,0,1-.565.18q-2-.284-4.006-.523a.56.56,0,0,1-.492-.3q-1.386-3.106-2.884-6.194a.633.633,0,0,0-.509-.351l-.288-.027a.719.719,0,0,0-.785.534q-.237,2.643-.476,5.283c-.03.331-.21.465-.542.436q-1.824-.161-3.652-.284c-.334-.023-.721-.2-.7-.529q.532-8.32,1.066-16.641c.021-.331.465-.446.83-.421q2.893.2,5.78.474c5.346.527,7.764,2.622,7.276,6.1-.28,2.054-1.554,3.426-3.792,4.3q1.983,3.674,3.792,7.383A.543.543,0,0,1,1708.241,226.87Zm17.923,3.549a.565.565,0,0,1-.521.068q-1.953-.474-3.915-.9a.6.6,0,0,1-.479-.553q-.059-1.265-.127-2.529a.711.711,0,0,0-.468-.659q-2.453-.513-4.916-.963a.679.679,0,0,0-.675.4q-.56,1.188-1.109,2.377a.556.556,0,0,1-.641.278q-1.995-.344-4-.645a.556.556,0,0,1-.458-.248.465.465,0,0,1-.017-.477q3.941-7.873,8.347-15.592a.627.627,0,0,1,.685-.258q3.021.544,6.026,1.179a.627.627,0,0,1,.536.495q1.214,8.8,1.928,17.575A.5.5,0,0,1,1726.164,230.419Zm24.378-10.373q-2.806,7.851-5.612,15.7c-.112.312-.448.352-.763.24q-2.555-.9-5.131-1.732c-.215-.07-.418-.114-.457-.336q-1.218-6.75-2.86-13.516l-.114-.032c-.352,1.868-.671,3.265-.955,4.269q-1.011,3.588-2.025,7.177c-.09.319-.383.392-.7.3q-1.494-.417-2.994-.809c-.323-.084-.652-.324-.57-.645l4.152-16.15c.083-.321.519-.357.873-.264q2.847.742,5.675,1.568c.236.069.451.14.5.362q1.651,6.733,2.881,13.459l.072.024c.448-1.721.777-3.05,1.12-4.087q1.177-3.55,2.353-7.1c.1-.315.475-.343.822-.227q1.623.545,3.237,1.115C1750.39,219.487,1750.654,219.734,1750.542,220.046Zm15.925,15.235a9.12,9.12,0,0,1-5.232,5.1c-2.208.761-4.634.487-7.409-.671q-2.42-1.008-4.863-1.947c-.313-.121-.555-.374-.438-.683q2.965-7.792,5.93-15.586c.118-.309.493-.32.835-.189q2.88,1.107,5.729,2.3c2.927,1.228,4.9,2.857,5.835,4.906A7.659,7.659,0,0,1,1766.467,235.281Z" fill="#fff"/><path d="M1710.36,273.262a6.481,6.481,0,0,1-4.1-2.856c-14.089-22.241-21.5-36.423-24.031-41.489l6.642-3.32c2.449,4.9,9.568,18.524,23.126,39.989a203.91,203.91,0,0,0,34.091-28.43l5.379,5.119a212.114,212.114,0,0,1-36.189,30.05A6.487,6.487,0,0,1,1710.36,273.262Z" fill="#fff"/></g></svg>